<svg enable-background="new 0 0 997.6 454.8" viewBox="0 0 997.6 454.8"
    xmlns="http://www.w3.org/2000/svg" xmlns:xlink="http://www.w3.org/1999/xlink">
    <pattern id="a" height="49.5" overflow="visible" patternUnits="userSpaceOnUse"
        viewBox="0 -49.5 36.9 49.5" width="36.9" y="454.8">
        <path d="m0-49.5h36.9v49.5h-36.9z" fill="none" />
        <path d="m0-49.5h36.9v49.5h-36.9z" fill="none" />
        <path d="m0-49.5h36.9v49.5h-36.9z" fill="none" />
        <path d="m4.3-36.3c4.5 0 4.5-7 0-7s-4.5 7 0 7z" />
        <path d="m4.5-32.3c4.5 0 4.5-7 0-7s-4.5 7 0 7z" />
        <path d="m4.5-28.6c4.5 0 4.5-7 0-7s-4.5 7 0 7z" />
        <path d="m3.4-24.8c4.5 0 4.5-7 0-7s-4.5 7 0 7z" />
        <path
            d="m1.1-21.2.2.4c1 1.7 3.1 2.2 4.8 1.3 1.6-1 2.2-3.1 1.3-4.8l-.2-.4c-1-1.7-3.1-2.2-4.8-1.3-1.7 1-2.2 3.1-1.3 4.8z" />
        <path
            d="m1.5-19.4.2.6c.3.9.8 1.6 1.6 2.1s1.8.6 2.7.3c1.9-.5 2.9-2.4 2.4-4.3l-.2-.6c-.3-.9-.8-1.6-1.6-2.1s-1.8-.6-2.7-.4c-1.8.6-2.9 2.5-2.4 4.4z" />
        <path
            d="m1.6-15.6v.4c0 1.9 1.6 3.5 3.5 3.5s3.5-1.6 3.5-3.5v-.4c0-1.9-1.6-3.5-3.5-3.5s-3.5 1.6-3.5 3.5z" />
        <path d="m4.9-7.2c4.5 0 4.5-7 0-7s-4.5 7 0 7z" />
        <path
            d="m1.8-7.5v.2c0 1.9 1.6 3.5 3.5 3.5s3.5-1.6 3.5-3.5v-.2c0-1.9-1.6-3.5-3.5-3.5s-3.5 1.6-3.5 3.5z" />
        <path d="m6-.2c4.5 0 4.5-7 0-7s-4.5 7 0 7z" />
        <path d="m10-35.4c4.5 0 4.5-7 0-7s-4.5 7 0 7z" />
        <path d="m6.6-28.6c4.5 0 4.5-7 0-7s-4.5 7 0 7z" />
        <path d="m8.5-22.5c4.5 0 4.5-7 0-7s-4.5 7 0 7z" />
        <path d="m8.5-20.2c4.5 0 4.5-7 0-7s-4.5 7 0 7z" />
        <path d="m14.9-15.7c4.5 0 4.5-7 0-7s-4.5 7 0 7z" />
        <path d="m9.8-11c4.5 0 4.5-7 0-7s-4.5 7 0 7z" />
        <path d="m10.6-4.4c4.5 0 4.5-7 0-7s-4.5 7 0 7z" />
        <path d="m10.6 0c4.5 0 4.5-7 0-7s-4.5 7 0 7z" />
        <path d="m12.8-31.4c2.6 0 2.6-4 0-4s-2.5 4 0 4z" />
        <path d="m13-29.1c2.6 0 2.6-4 0-4s-2.6 4 0 4z" />
        <path d="m13.1-28.5v.2c0 1.1.9 2 2 2s2-.9 2-2v-.2c0-1.1-.9-2-2-2s-2 .9-2 2z" />
        <path d="m15.1-23.6c2.6 0 2.6-4 0-4s-2.6 4 0 4z" />
        <path d="m16.6-38.4c.6 0 1-.4 1-1s-.4-1-1-1-1 .4-1 1 .5 1 1 1z" />
        <path d="m21.7-33c.6 0 1-.4 1-1s-.4-1-1-1-1 .4-1 1 .5 1 1 1z" />
        <path d="m16.9-40.6v-.4c0-.6-.4-1-1-1s-1 .4-1 1v.4c0 .6.4 1 1 1 .5 0 1-.4 1-1z" />
        <path d="m16.5-44.7v-.2c0-.6-.4-1-1-1s-1 .4-1 1v.2c0 .6.4 1 1 1 .5 0 1-.5 1-1z" />
        <path d="m15.5-47.5c.6 0 1-.4 1-1s-.4-1-1-1-1 .4-1 1 .4 1 1 1z" />
        <path d="m10.6-47.5c.6 0 1-.4 1-1s-.4-1-1-1-1 .4-1 1 .4 1 1 1z" />
        <path d="m10.4-44.8c.6 0 1-.4 1-1s-.4-1-1-1-1 .4-1 1 .4 1 1 1z" />
        <path d="m7.4-43.3c.6 0 1-.4 1-1s-.4-1-1-1-1 .4-1 1 .4 1 1 1z" />
        <path d="m11.9-42.4h.4c.6 0 1-.4 1-1s-.4-1-1-1h-.4c-.6 0-1 .4-1 1s.4 1 1 1z" />
        <path
            d="m13.3-38.5.6 1.3c.3.5.9.6 1.4.4.5-.3.6-.9.4-1.4l-.7-1.3c-.3-.5-.9-.6-1.4-.4-.4.3-.6.9-.3 1.4z" />
        <path d="m18.4-30.2v.2c0 .6.4 1 1 1s1-.4 1-1v-.2c0-.6-.4-1-1-1s-1 .5-1 1z" />
        <path d="m20.7-24.6.2.4c.6 1.1 2.3.1 1.7-1l-.2-.4c-.6-1.1-2.3-.1-1.7 1z" />
        <path
            d="m22.1-20.1c-.5.5-.8 1.1-.8 1.9 0 .6.4 1 1 1s1-.4 1-1c0-.2.1-.3.3-.4.4-.4.4-1 0-1.4-.4-.5-1.1-.5-1.5-.1z" />
        <path d="m20.3-16.1-.5 1.7c-.4 1.2 1.5 1.8 1.9.5l.5-1.7c.4-1.2-1.5-1.7-1.9-.5z" />
        <path d="m19.4-12.5h-.2c-.6 0-1 .4-1 1s.4 1 1 1h.2c.6 0 1-.4 1-1s-.4-1-1-1z" />
        <path d="m17.6-8-.2.4c-.6 1.2 1.1 2.2 1.7 1l.2-.4c.6-1.2-1.1-2.2-1.7-1z" />
        <path d="m15.8-1.6v.6c0 .6.4 1 1 1s1-.4 1-1v-.6c0-.6-.4-1-1-1s-1 .4-1 1z" />
        <path d="m14.3-.1c.6 0 1-.4 1-1s-.4-1-1-1-1 .4-1 1 .5 1 1 1z" />
        <path d="m14.3-8.2c.6 0 1-.4 1-1s-.4-1-1-1-1 .4-1 1 .5 1 1 1z" />
        <path d="m17.1-13c.6-.3 1-1 1-1.6s-.4-1-1-1-1 .4-1 1c0-.1.2-.2 0-.1-1.1.5-.1 2.2 1 1.7z" />
        <path d="m17.4-18.2c.6 0 1-.4 1-1s-.4-1-1-1-1 .4-1 1 .4 1 1 1z" />
        <path d="m18.1-21c.6 0 1-.4 1-1s-.4-1-1-1-1 .4-1 1 .5 1 1 1z" />
        <path d="m19-24.6.2-.4c.6-1.1-1.1-2.2-1.7-1l-.2.4c-.6 1.2 1.1 2.2 1.7 1z" />
        <path d="m17.9-33.5c.6 0 1-.4 1-1s-.4-1-1-1-1 .4-1 1 .5 1 1 1z" />
        <path
            d="m24.6-33.5.6.9c.3.4 1 .5 1.4.2s.5-.8.3-1.2l-.6-1c-.3-.5-.9-.6-1.4-.3-.3.4-.5.9-.3 1.4z" />
        <path d="m34.9-19.8v.2c0 .6.4 1 1 1s1-.4 1-1v-.2c0-.6-.4-1-1-1s-1 .5-1 1z" />
        <path d="m24-10.3c.6 0 1-.4 1-1s-.4-1-1-1-1 .4-1 1 .5 1 1 1z" />
        <path d="m22.9-20.5c.6 0 1-.4 1-1s-.4-1-1-1-1 .4-1 1 .4 1 1 1z" />
        <path d="m18.2-27.6.6-.6c.9-.9-.5-2.3-1.4-1.4l-.6.6c-.9.9.5 2.3 1.4 1.4z" />
    </pattern>
    <pattern id="b" height="49.5" overflow="visible" patternUnits="userSpaceOnUse"
        viewBox="0 -49.5 36.9 49.5" width="36.9" y="454.8">
        <path d="m0-49.5h36.9v49.5h-36.9z" fill="none" />
        <path d="m0-49.5h36.9v49.5h-36.9z" fill="none" />
        <path d="m0-49.5h36.9v49.5h-36.9z" fill="none" />
        <path d="m4.3-36.3c4.5 0 4.5-7 0-7s-4.5 7 0 7z" />
        <path d="m4.5-32.3c4.5 0 4.5-7 0-7s-4.5 7 0 7z" />
        <path d="m4.5-28.6c4.5 0 4.5-7 0-7s-4.5 7 0 7z" />
        <path d="m3.4-24.8c4.5 0 4.5-7 0-7s-4.5 7 0 7z" />
        <path
            d="m1.1-21.2.2.4c1 1.7 3.1 2.2 4.8 1.3 1.6-1 2.2-3.1 1.3-4.8l-.2-.4c-1-1.7-3.1-2.2-4.8-1.3-1.7 1-2.2 3.1-1.3 4.8z" />
        <path
            d="m1.5-19.4.2.6c.3.9.8 1.6 1.6 2.1s1.8.6 2.7.3c1.9-.5 2.9-2.4 2.4-4.3l-.2-.6c-.3-.9-.8-1.6-1.6-2.1s-1.8-.6-2.7-.4c-1.8.6-2.9 2.5-2.4 4.4z" />
        <path
            d="m1.6-15.6v.4c0 1.9 1.6 3.5 3.5 3.5s3.5-1.6 3.5-3.5v-.4c0-1.9-1.6-3.5-3.5-3.5s-3.5 1.6-3.5 3.5z" />
        <path d="m4.9-7.2c4.5 0 4.5-7 0-7s-4.5 7 0 7z" />
        <path
            d="m1.8-7.5v.2c0 1.9 1.6 3.5 3.5 3.5s3.5-1.6 3.5-3.5v-.2c0-1.9-1.6-3.5-3.5-3.5s-3.5 1.6-3.5 3.5z" />
        <path d="m6-.2c4.5 0 4.5-7 0-7s-4.5 7 0 7z" />
        <path d="m10-35.4c4.5 0 4.5-7 0-7s-4.5 7 0 7z" />
        <path d="m6.6-28.6c4.5 0 4.5-7 0-7s-4.5 7 0 7z" />
        <path d="m8.5-22.5c4.5 0 4.5-7 0-7s-4.5 7 0 7z" />
        <path d="m8.5-20.2c4.5 0 4.5-7 0-7s-4.5 7 0 7z" />
        <path d="m14.9-15.7c4.5 0 4.5-7 0-7s-4.5 7 0 7z" />
        <path d="m9.8-11c4.5 0 4.5-7 0-7s-4.5 7 0 7z" />
        <path d="m10.6-4.4c4.5 0 4.5-7 0-7s-4.5 7 0 7z" />
        <path d="m10.6 0c4.5 0 4.5-7 0-7s-4.5 7 0 7z" />
        <path d="m12.8-31.4c2.6 0 2.6-4 0-4s-2.5 4 0 4z" />
        <path d="m13-29.1c2.6 0 2.6-4 0-4s-2.6 4 0 4z" />
        <path d="m13.1-28.5v.2c0 1.1.9 2 2 2s2-.9 2-2v-.2c0-1.1-.9-2-2-2s-2 .9-2 2z" />
        <path d="m15.1-23.6c2.6 0 2.6-4 0-4s-2.6 4 0 4z" />
        <path d="m16.6-38.4c.6 0 1-.4 1-1s-.4-1-1-1-1 .4-1 1 .5 1 1 1z" />
        <path d="m21.7-33c.6 0 1-.4 1-1s-.4-1-1-1-1 .4-1 1 .5 1 1 1z" />
        <path d="m16.9-40.6v-.4c0-.6-.4-1-1-1s-1 .4-1 1v.4c0 .6.4 1 1 1 .5 0 1-.4 1-1z" />
        <path d="m16.5-44.7v-.2c0-.6-.4-1-1-1s-1 .4-1 1v.2c0 .6.4 1 1 1 .5 0 1-.5 1-1z" />
        <path d="m15.5-47.5c.6 0 1-.4 1-1s-.4-1-1-1-1 .4-1 1 .4 1 1 1z" />
        <path d="m10.6-47.5c.6 0 1-.4 1-1s-.4-1-1-1-1 .4-1 1 .4 1 1 1z" />
        <path d="m10.4-44.8c.6 0 1-.4 1-1s-.4-1-1-1-1 .4-1 1 .4 1 1 1z" />
        <path d="m7.4-43.3c.6 0 1-.4 1-1s-.4-1-1-1-1 .4-1 1 .4 1 1 1z" />
        <path d="m11.9-42.4h.4c.6 0 1-.4 1-1s-.4-1-1-1h-.4c-.6 0-1 .4-1 1s.4 1 1 1z" />
        <path
            d="m13.3-38.5.6 1.3c.3.5.9.6 1.4.4.5-.3.6-.9.4-1.4l-.7-1.3c-.3-.5-.9-.6-1.4-.4-.4.3-.6.9-.3 1.4z" />
        <path d="m18.4-30.2v.2c0 .6.4 1 1 1s1-.4 1-1v-.2c0-.6-.4-1-1-1s-1 .5-1 1z" />
        <path d="m20.7-24.6.2.4c.6 1.1 2.3.1 1.7-1l-.2-.4c-.6-1.1-2.3-.1-1.7 1z" />
        <path
            d="m22.1-20.1c-.5.5-.8 1.1-.8 1.9 0 .6.4 1 1 1s1-.4 1-1c0-.2.1-.3.3-.4.4-.4.4-1 0-1.4-.4-.5-1.1-.5-1.5-.1z" />
        <path d="m20.3-16.1-.5 1.7c-.4 1.2 1.5 1.8 1.9.5l.5-1.7c.4-1.2-1.5-1.7-1.9-.5z" />
        <path d="m19.4-12.5h-.2c-.6 0-1 .4-1 1s.4 1 1 1h.2c.6 0 1-.4 1-1s-.4-1-1-1z" />
        <path d="m17.6-8-.2.4c-.6 1.2 1.1 2.2 1.7 1l.2-.4c.6-1.2-1.1-2.2-1.7-1z" />
        <path d="m15.8-1.6v.6c0 .6.4 1 1 1s1-.4 1-1v-.6c0-.6-.4-1-1-1s-1 .4-1 1z" />
        <path d="m14.3-.1c.6 0 1-.4 1-1s-.4-1-1-1-1 .4-1 1 .5 1 1 1z" />
        <path d="m14.3-8.2c.6 0 1-.4 1-1s-.4-1-1-1-1 .4-1 1 .5 1 1 1z" />
        <path d="m17.1-13c.6-.3 1-1 1-1.6s-.4-1-1-1-1 .4-1 1c0-.1.2-.2 0-.1-1.1.5-.1 2.2 1 1.7z" />
        <path d="m17.4-18.2c.6 0 1-.4 1-1s-.4-1-1-1-1 .4-1 1 .4 1 1 1z" />
        <path d="m18.1-21c.6 0 1-.4 1-1s-.4-1-1-1-1 .4-1 1 .5 1 1 1z" />
        <path d="m19-24.6.2-.4c.6-1.1-1.1-2.2-1.7-1l-.2.4c-.6 1.2 1.1 2.2 1.7 1z" />
        <path d="m17.9-33.5c.6 0 1-.4 1-1s-.4-1-1-1-1 .4-1 1 .5 1 1 1z" />
        <path
            d="m24.6-33.5.6.9c.3.4 1 .5 1.4.2s.5-.8.3-1.2l-.6-1c-.3-.5-.9-.6-1.4-.3-.3.4-.5.9-.3 1.4z" />
        <path d="m34.9-19.8v.2c0 .6.4 1 1 1s1-.4 1-1v-.2c0-.6-.4-1-1-1s-1 .5-1 1z" />
        <path d="m24-10.3c.6 0 1-.4 1-1s-.4-1-1-1-1 .4-1 1 .5 1 1 1z" />
        <path d="m22.9-20.5c.6 0 1-.4 1-1s-.4-1-1-1-1 .4-1 1 .4 1 1 1z" />
        <path d="m18.2-27.6.6-.6c.9-.9-.5-2.3-1.4-1.4l-.6.6c-.9.9.5 2.3 1.4 1.4z" />
    </pattern>
    <linearGradient id="c">
        <stop offset="0" stop-color="#808080" stop-opacity=".25" />
        <stop offset=".54" stop-color="#808080" stop-opacity=".12" />
        <stop offset="1" stop-color="#808080" stop-opacity=".1" />
    </linearGradient>
    <linearGradient id="d" gradientUnits="userSpaceOnUse" x1="792.2629" x2="792.2629"
        xlink:href="#c" y1="445.725" y2="273.775" />
    <pattern id="e" opacity=".1" patternTransform="translate(-31.96 16516.9043)" xlink:href="#a" />
    <pattern id="f" opacity=".1" patternTransform="translate(-31.96 16516.9043)" xlink:href="#b" />
    <linearGradient id="g" gradientUnits="userSpaceOnUse" x1="379.4437" x2="379.4437"
        xlink:href="#c" y1="444.8001" y2="343.9" />
    <g opacity=".1">
        <g fill="#3f3d56">
            <ellipse cx="700.7" cy="427.9" rx="8.5" ry="11.1" />
            <path
                d="m694 380.2c-1.2-2.1-1.8-4.4-1.8-6.8 0-6.1 3.8-11.1 8.5-11.1s8.5 5 8.5 11.1c0 2.4-.6 4.7-1.8 6.8 2.4 4.2 2.4 9.4 0 13.6 2.4 4.2 2.4 9.4 0 13.6 1.2 2.1 1.8 4.4 1.8 6.8 0 6.1-3.8 11.1-8.5 11.1s-8.5-5-8.5-11.1c0-2.4.6-4.7 1.8-6.8-2.4-4.2-2.4-9.4 0-13.6-2.4-4.2-2.4-9.3 0-13.6z" />
            <ellipse cx="700.7" cy="359.8" rx="8.5" ry="11.1" />
            <ellipse cx="700.7" cy="346.2" rx="8.5" ry="11.1" />
        </g>
        <path
            d="m732.5 253.1c1.2-1.5 2.2-3 3.2-4.7l-22.3-3.7 24.2.2c4.7-10.2 5-21.9.8-32.3l-32.4 16.8 29.9-22c-11.2-19.5-36.2-26.2-55.7-15s-26.2 36.2-15 55.7c1 1.7 2.1 3.3 3.3 4.9-1.8 2.3-3.4 4.8-4.7 7.4l29 15.1-30.8-10.3c-4.4 13-1.9 27.4 6.6 38.3-13.9 17.7-10.9 43.3 6.8 57.2s43.3 10.9 57.2-6.8c11.7-14.8 11.7-35.6 0-50.4 11.6-14.8 11.6-35.6-.1-50.4z"
            fill="#f9a826" />
        <path
            d="m659.8 278.3c0 9.1 3.1 18 8.7 25.2-13.9 17.7-10.9 43.3 6.8 57.2s43.3 10.9 57.2-6.8c11.7-14.8 11.7-35.6 0-50.4 5.5-7-72.7-29.8-72.7-25.2z"
            opacity=".1" />
    </g>
    <g opacity=".1">
        <g fill="#3f3d56">
            <ellipse cx="562" cy="430.6" rx="7.9" ry="10.2" />
            <path
                d="m555.8 386.8c-1.1-1.9-1.7-4.1-1.7-6.2 0-5.7 3.6-10.2 7.9-10.2 4.4 0 7.9 4.6 7.9 10.2 0 2.2-.5 4.4-1.7 6.2 2.2 3.9 2.2 8.6 0 12.5 2.2 3.9 2.2 8.6 0 12.5 1.1 1.9 1.7 4.1 1.7 6.2 0 5.7-3.6 10.2-7.9 10.2-4.4 0-7.9-4.6-7.9-10.2 0-2.2.5-4.3 1.7-6.2-2.2-3.9-2.2-8.6 0-12.5-2.2-3.9-2.2-8.6 0-12.5z" />
            <ellipse cx="562" cy="368.1" rx="7.9" ry="10.2" />
            <ellipse cx="562" cy="355.5" rx="7.9" ry="10.2" />
        </g>
        <path
            d="m591.7 270c1.1-1.4 2.1-2.8 3-4.3l-20.8-3.4 22.5.2c4.4-9.4 4.6-20.1.7-29.7l-30.2 15.5 27.9-20.2c-10.5-17.9-33.7-24.1-51.9-13.7-18.2 10.3-24.4 33.2-13.9 51.1.9 1.6 2 3.1 3.1 4.5-1.7 2.1-3.1 4.4-4.3 6.8l27 13.8-28.8-9.5c-4.1 12-1.8 25.2 6.1 35.2-13 16.2-10.2 39.8 6.3 52.6s40.4 10 53.4-6.2c10.9-13.6 10.9-32.8 0-46.3 10.8-13.7 10.8-32.9-.1-46.4z"
            fill="#f9a826" />
        <path
            d="m523.9 293.1c0 8.4 2.9 16.6 8.1 23.1-13 16.2-10.2 39.8 6.3 52.6s40.4 10 53.4-6.2c10.9-13.6 10.9-32.8 0-46.3 5.1-6.4-67.8-27.4-67.8-23.2z"
            opacity=".1" />
    </g>
    <g opacity=".1">
        <g fill="#3f3d56">
            <ellipse cx="870.9" cy="428.2" rx="11.8" ry="15.4" />
            <path
                d="m861.6 362.1c-1.6-2.9-2.5-6.1-2.5-9.4 0-8.5 5.3-15.4 11.8-15.4s11.8 6.9 11.8 15.4c0 3.3-.8 6.6-2.5 9.4 3.3 5.9 3.3 13 0 18.9 3.3 5.9 3.3 13 0 18.9 1.7 2.9 2.5 6.1 2.5 9.4 0 8.5-5.3 15.4-11.8 15.4s-11.8-6.9-11.8-15.4c0-3.3.8-6.6 2.5-9.4-3.3-5.9-3.3-13 0-18.9-3.3-5.9-3.3-13 0-18.9z" />
            <ellipse cx="870.9" cy="333.8" rx="11.8" ry="15.4" />
            <ellipse cx="870.9" cy="315" rx="11.8" ry="15.4" />
        </g>
        <path
            d="m915.1 185.8c1.6-2 3.1-4.2 4.4-6.5l-31-5.1 33.5.2c6.5-14.1 6.9-30.3 1.1-44.8l-45 23.3 41.5-30.5c-15.6-27-50.1-36.3-77.2-20.7-27 15.6-36.3 50.1-20.7 77.2 1.4 2.4 2.9 4.6 4.6 6.8-2.5 3.2-4.7 6.6-6.4 10.3l40.1 21-42.8-14.4c-6.1 18.1-2.7 38 9.1 53.1-19.3 24.5-15.1 60 9.4 79.3s60 15.1 79.3-9.4c16.2-20.5 16.2-49.4 0-69.9 16.2-20.5 16.2-49.4.1-69.9z"
            fill="#f9a826" />
        <path
            d="m814.2 220.7c0 12.7 4.2 25 12.1 34.9-19.3 24.5-15.1 60 9.4 79.3s60 15.1 79.3-9.4c16.2-20.5 16.2-49.4 0-69.9 7.6-9.5-100.8-41.2-100.8-34.9z"
            opacity=".1" />
    </g>
    <g opacity=".1">
        <g fill="#3f3d56">
            <ellipse cx="163.9" cy="428.2" rx="11.4" ry="14.9" />
            <path
                d="m172.9 364.5c1.6-2.8 2.4-5.9 2.4-9.1 0-8.2-5.1-14.9-11.4-14.9s-11.4 6.7-11.4 14.9c0 3.2.8 6.3 2.4 9.1-3.2 5.7-3.2 12.6 0 18.2-3.2 5.7-3.2 12.6 0 18.2-1.6 2.8-2.4 5.9-2.4 9.1 0 8.2 5.1 14.9 11.4 14.9s11.4-6.7 11.4-14.9c0-3.2-.8-6.3-2.4-9.1 3.2-5.7 3.2-12.6 0-18.2 3.2-5.6 3.2-12.5 0-18.2z" />
            <ellipse cx="163.9" cy="337.2" rx="11.4" ry="14.9" />
            <ellipse cx="163.9" cy="319" rx="11.4" ry="14.9" />
        </g>
        <path
            d="m121.3 194.4c-1.6-2-3-4.1-4.2-6.2l29.9-4.9-32.4.3c-6.3-13.7-6.6-29.3-1-43.2l43.4 22.5-40-29.4c14.9-26.1 48.3-35.2 74.4-20.3s35.2 48.3 20.3 74.4c-1.4 2.4-2.9 4.7-4.7 6.9 2.4 3.1 4.5 6.4 6.2 9.9l-38.8 20.2 41.4-13.9c5.9 17.5 2.6 36.7-8.8 51.2 18.6 23.7 14.5 57.9-9.1 76.6s-57.9 14.5-76.6-9.1c-15.6-19.8-15.6-47.6 0-67.4-15.6-20-15.6-47.8 0-67.6z"
            fill="#f9a826" />
        <path
            d="m218.6 228.1c0 12.2-4.1 24.1-11.7 33.7 18.6 23.7 14.5 57.9-9.1 76.6s-57.9 14.5-76.6-9.1c-15.6-19.8-15.6-47.6 0-67.4-7.3-9.4 97.4-40 97.4-33.8z"
            opacity=".1" />
    </g>
    <g opacity=".1">
        <g fill="#3f3d56">
            <ellipse cx="418" cy="422.9" rx="11.4" ry="14.9" />
            <path
                d="m427 359.2c1.6-2.8 2.4-5.9 2.4-9.1 0-8.2-5.1-14.9-11.4-14.9s-11.4 6.7-11.4 14.9c0 3.2.8 6.3 2.4 9.1-3.2 5.7-3.2 12.6 0 18.2-3.2 5.7-3.2 12.6 0 18.2-1.6 2.8-2.4 5.9-2.4 9.1 0 8.2 5.1 14.9 11.4 14.9s11.4-6.7 11.4-14.9c0-3.2-.8-6.3-2.4-9.1 3.2-5.7 3.2-12.6 0-18.2 3.2-5.6 3.2-12.5 0-18.2z" />
            <ellipse cx="418" cy="331.9" rx="11.4" ry="14.9" />
            <ellipse cx="418" cy="313.7" rx="11.4" ry="14.9" />
        </g>
        <path
            d="m375.4 189.1c-1.6-2-3-4.1-4.2-6.2l29.9-4.9-32.4.3c-6.3-13.7-6.6-29.3-1-43.2l43.4 22.5-40-29.4c14.9-26.1 48.3-35.2 74.4-20.3s35.2 48.3 20.3 74.4c-1.4 2.4-2.9 4.7-4.7 6.9 2.4 3.1 4.5 6.4 6.2 9.9l-38.8 20.2 41.4-13.9c5.9 17.5 2.6 36.7-8.8 51.2 18.6 23.7 14.5 57.9-9.1 76.6s-57.9 14.5-76.6-9.1c-15.6-19.8-15.6-47.6 0-67.4-15.6-20-15.6-47.8 0-67.6z"
            fill="#f9a826" />
        <path
            d="m472.7 222.8c0 12.2-4.1 24.1-11.7 33.7 18.6 23.7 14.5 57.9-9.1 76.6s-57.9 14.5-76.6-9.1c-15.6-19.8-15.6-47.6 0-67.4-7.3-9.4 97.4-40 97.4-33.8z"
            opacity=".1" />
    </g>
    <g fill="#f9a826">
        <ellipse cx="498.8" cy="446.7" opacity=".1" rx="498.8" ry="8.1" />
        <path
            d="m762.8 59c-3.6-.7-7.3-.3-10.6 1.2-4.1 1.8-8.7 1.8-12.7 0-4.8-2.1-10.3-2-15 .3-1.3.7-2.8 1.1-4.3 1.1-6.1 0-11.1-6.1-12.2-14.2 1.2-.9 2.2-2 3-3.3 3.6-5.7 9.1-9.4 15.3-9.4s11.6 3.6 15.2 9.3c2.2 3.5 6 5.6 10.1 5.5h.2c4.7 0 8.9 3.9 11 9.5z"
            opacity=".1" />
        <path
            d="m781.3 33.7-9.8 6.2 6-10.8c-1.7-1.3-3.8-2.1-5.9-2.1h-.2c-.7 0-1.3 0-2-.1l-3.4 2.1 1.4-2.6c-2.4-.8-4.4-2.4-5.8-4.4l-6 3.8 3.8-6.8c-3.5-4.2-8.2-6.7-13.3-6.7-6.2 0-11.7 3.7-15.3 9.4-2.1 3.5-6 5.6-10.1 5.4h-.3c-6.8 0-12.4 7.8-12.4 17.3 0 9.6 5.5 17.3 12.4 17.3 1.5 0 3-.4 4.3-1.1 4.7-2.3 10.2-2.4 15-.3 4.1 1.8 8.7 1.8 12.7 0 4.8-2.1 10.2-2 14.9.3 1.3.7 2.8 1.1 4.3 1.1 6.8 0 12.4-7.8 12.4-17.3-.1-3.8-1-7.5-2.7-10.7z"
            opacity=".1" />
        <path
            d="m439.6 59.8c-2.5-.5-5.1-.2-7.4.8-2.8 1.3-6.1 1.3-8.9 0-3.4-1.5-7.2-1.4-10.5.2-.9.5-2 .7-3 .8-4.3 0-7.8-4.3-8.5-9.9.8-.6 1.6-1.4 2.1-2.3 2.5-4 6.4-6.6 10.7-6.6s8.1 2.6 10.6 6.5c1.5 2.4 4.2 3.9 7.1 3.9h.1c3.4 0 6.3 2.7 7.7 6.6z"
            opacity=".1" />
        <path
            d="m134.3 42.3c-2.5-.5-5.1-.2-7.4.8-2.8 1.3-6.1 1.3-8.9 0-3.4-1.5-7.2-1.4-10.5.2-.9.5-2 .7-3 .8-4.3 0-7.8-4.3-8.5-9.9.8-.6 1.6-1.4 2.1-2.3 2.5-4 6.4-6.6 10.7-6.6s8.1 2.6 10.6 6.5c1.5 2.4 4.2 3.9 7.1 3.9h.1c3.3 0 6.3 2.7 7.7 6.6z"
            opacity=".1" />
        <path
            d="m976.5 73.2c-3.7-.7-7.5-.3-10.9 1.2-4.2 1.9-8.9 1.9-13.1 0-4.9-2.2-10.6-2.1-15.4.3-1.4.7-2.9 1.1-4.4 1.1-6.3 0-11.5-6.5-12.6-15.1 1.2-.9 2.3-2.1 3.1-3.5 3.7-6.1 9.3-10 15.7-10s12 3.9 15.7 9.9c2.2 3.7 6.2 6 10.4 5.9h.2c4.9.1 9.2 4.2 11.3 10.2z"
            opacity=".1" />
        <path
            d="m325.4 70.7-6.9 4.4 4.2-7.6c-1.2-.9-2.6-1.5-4.1-1.5h-.1c-.5 0-1 0-1.4-.1l-2.3 1.5 1-1.8c-1.7-.6-3.1-1.7-4.1-3.1l-4.2 2.6 2.6-4.8c-2.2-2.9-5.7-4.6-9.3-4.7-4.3 0-8.2 2.6-10.7 6.6-1.5 2.4-4.2 3.9-7.1 3.8h-.2c-4.8 0-8.7 5.4-8.7 12.1s3.9 12.1 8.7 12.1c1 0 2.1-.3 3-.8 3.3-1.6 7.1-1.7 10.5-.2 1.4.6 2.9 1 4.5 1 1.5 0 3-.3 4.4-.9 3.3-1.4 7.1-1.4 10.4.2.9.5 2 .7 3 .7 4.8 0 8.7-5.4 8.7-12.1 0-2.5-.6-5.1-1.9-7.4z"
            opacity=".1" />
        <path
            d="m19.7 88.6c4.4-.8 8.9-.3 13 1.4 5 2.2 10.7 2.2 15.6 0 5.9-2.6 12.6-2.5 18.4.4 1.6.9 3.4 1.3 5.3 1.3 7.5 0 13.7-7.5 14.9-17.4-1.5-1.1-2.7-2.5-3.7-4-4.4-7-11.2-11.6-18.8-11.6s-14.3 4.5-18.7 11.4c-2.6 4.3-7.3 6.9-12.4 6.8h-.2c-5.8.1-11 4.9-13.4 11.7z"
            opacity=".1" />
        <path
            d="m524.8 39.2 11.1 7-6.8-12.1c1.9-1.5 4.3-2.3 6.7-2.4h.2c.8 0 1.5 0 2.3-.2l3.8 2.3-1.6-2.9c2.7-.9 5-2.6 6.6-4.9l6.8 4.2-4.2-7.7c3.6-4.6 9.2-7.4 15.1-7.5 7 0 13.3 4.1 17.3 10.5 2.4 3.9 6.8 6.2 11.4 6.1h.4c7.7 0 14 8.7 14 19.4s-6.3 19.4-14 19.4c-1.7 0-3.4-.4-4.9-1.2-5.3-2.6-11.5-2.7-17-.3-2.3 1-4.7 1.6-7.3 1.6-2.5 0-4.9-.5-7.2-1.5-5.4-2.3-11.5-2.2-16.8.3-1.5.8-3.2 1.2-4.9 1.2-7.8 0-14-8.7-14-19.4 0-4.1 1-8.2 3-11.9z"
            opacity=".1" />
    </g>
    <path
        d="m644.4 437.6c2.6-4.8-.3-10.8-3.8-15.1s-7.6-8.8-7.5-14.3c.1-7.9 8.5-12.6 15.2-16.7 5-3.1 9.6-6.8 13.7-11 1.7-1.6 3.1-3.5 4.2-5.6 1.4-3.1 1.3-6.6 1.3-10-.3-11.3-.8-22.5-1.7-33.8"
        fill="none" stroke="#3f3d56" stroke-miterlimit="10" stroke-width="4" />
    <path
        d="m668.7 336.7c-.2-4.2-2.5-8-6.1-10.1l-2.8 5.5.1-6.6c-6.5-1.9-13.4 1.8-15.3 8.3s1.8 13.4 8.3 15.3 13.4-1.8 15.3-8.3c.4-1.3.5-2.7.5-4.1z"
        fill="#f9a826" />
    <path
        d="m656.5 413.9c-3.1 6-10.5 8.4-16.6 5.3-3.9-2-6.4-5.9-6.7-10.3-.1-1.7.2-3.4.8-5 2.5-6.3 9.6-9.5 16-7 3.2 1.3 5.8 3.9 7 7.1l-7.7 6.3 8.5-2c.1 1.9-.4 3.8-1.3 5.6z"
        fill="#f9a826" />
    <path
        d="m650.5 390c-6.8.3-12.6-4.9-12.9-11.7-.3-5.7 3.5-10.9 9-12.4l-.1 5.1 2.8-5.5c6.8-.3 12.6 4.9 12.9 11.7s-5 12.5-11.7 12.8z"
        fill="#f9a826" />
    <path
        d="m680.4 374.9c-6.8.4-12.6-4.9-12.9-11.7-.4-6.8 4.9-12.6 11.7-12.9 2.3-.1 4.7.4 6.7 1.6l-2.2 6 4.4-4.4c5 4.6 5.3 12.4.8 17.4-2.2 2.4-5.3 3.8-8.5 4z"
        fill="#f9a826" />
    <path
        d="m667 339.9c-2.8.3-5.6 1.2-8.5 1.4s-6-.5-7.8-2.7c-.8-1.3-1.6-2.6-2.3-4-.8-1.2-1.8-2.2-3.1-2.9-3.1 6.1-.7 13.5 5.4 16.6s13.5.7 16.6-5.4c.5-1 .8-2 1.1-3-.5-.1-.9 0-1.4 0z"
        opacity=".1" />
    <path
        d="m680.4 374.9c-6.8.3-12.6-4.9-12.9-11.7-.1-2 .3-4 1.2-5.8 1 .7 1.8 1.5 2.5 2.5.7 1.4 1.6 2.8 2.4 4.1 1.9 2.3 5.2 3 8.2 2.9s5.8-1 8.8-1.3c.4 0 .8-.1 1.2-.1-1.3 5.3-5.9 9.1-11.4 9.4z"
        opacity=".1" />
    <path
        d="m650.5 390c-6.8.3-12.6-4.9-12.9-11.7-.1-1.9.3-3.8 1.1-5.6 1 .7 1.9 1.5 2.6 2.5.8 1.4 1.7 2.8 2.7 4.2 2.1 2.3 5.6 3.1 8.7 3s6-.8 9-1c-1.6 4.9-6.1 8.3-11.2 8.6z"
        opacity=".1" />
    <path
        d="m656.5 413.9c-3.1 6-10.5 8.4-16.6 5.3-3.9-2-6.4-5.9-6.7-10.3-.1-1.7.2-3.4.8-5 1 .7 1.9 1.5 2.7 2.4 1.2 1.4 1.9 3 3.3 4.4 2.5 2.5 6.6 3.5 10.2 3.6 2.2-.1 4.3-.2 6.3-.4z"
        opacity=".1" />
    <path
        d="m239.7 439.4c2-3.8-.3-8.3-2.9-11.7-2.6-3.3-5.9-6.8-5.8-11.1.1-6.1 6.6-9.7 11.8-13 3.9-2.4 7.4-5.3 10.6-8.5 1.3-1.3 2.4-2.7 3.2-4.4 1.1-2.4 1-5.1 1-7.8-.2-8.7-.7-17.5-1.3-26.2"
        fill="none" stroke="#3f3d56" stroke-miterlimit="10" stroke-width="4" />
    <path
        d="m258.5 361.2c-.2-3.2-1.9-6.2-4.8-7.8l-2.1 4.2.1-5.1c-5.1-1.5-10.4 1.4-11.8 6.5-1.5 5.1 1.4 10.4 6.5 11.8 5.1 1.5 10.4-1.4 11.8-6.5.3-.9.4-2 .3-3.1z"
        fill="#f9a826" />
    <path
        d="m249.1 421c-2.4 4.7-8.2 6.5-12.9 4.1-3-1.6-5-4.6-5.2-8-.1-1.3.1-2.6.6-3.9 1.9-4.9 7.5-7.3 12.4-5.4 2.5 1 4.5 3 5.5 5.5l-6 4.9 6.6-1.6c.1 1.6-.3 3.1-1 4.4z"
        fill="#f9a826" />
    <path
        d="m244.4 402.5c-5.3.2-9.7-3.8-10-9.1-.2-4.4 2.7-8.4 7-9.6l-.1 3.9 2.2-4.3c5.3-.2 9.7 3.8 10 9.1.2 5.3-3.8 9.8-9.1 10z"
        fill="#f9a826" />
    <path
        d="m267.6 390.8c-5.3.3-9.8-3.8-10-9-.3-5.3 3.8-9.8 9-10 1.8-.1 3.6.3 5.2 1.2l-1.7 4.7 3.4-3.4c3.9 3.6 4.1 9.6.6 13.5-1.6 1.8-4 2.9-6.5 3z"
        fill="#f9a826" />
    <path
        d="m257.3 363.7c-2.2.2-4.3.9-6.6 1.1-2.2.1-4.7-.4-6-2.1-.6-1-1.2-2-1.8-3.1-.6-.9-1.4-1.7-2.4-2.3-2.4 4.7-.5 10.4 4.2 12.8s10.4.5 12.8-4.2c.4-.7.7-1.5.8-2.3-.3.1-.7.1-1 .1z"
        opacity=".1" />
    <path
        d="m267.6 390.8c-5.3.2-9.7-3.8-10-9.1-.1-1.6.2-3.1.9-4.5.8.5 1.4 1.2 1.9 1.9.6 1.1 1.2 2.1 1.9 3.2 1.5 1.7 4 2.3 6.3 2.2s4.5-.8 6.8-1c.3 0 .6 0 1-.1-.9 4.2-4.5 7.2-8.8 7.4z"
        opacity=".1" />
    <path
        d="m244.4 402.5c-5.3.2-9.7-3.8-10-9.1-.1-1.5.2-3 .8-4.3.8.5 1.5 1.2 2 1.9.6 1.1 1.3 2.2 2.1 3.2 1.6 1.8 4.3 2.4 6.8 2.3 2.4-.1 4.7-.6 7-.8-1.2 3.9-4.7 6.6-8.7 6.8z"
        opacity=".1" />
    <path
        d="m249.1 421c-2.4 4.7-8.2 6.5-12.9 4.1-3-1.6-5-4.6-5.2-8-.1-1.3.1-2.6.6-3.9.8.5 1.5 1.1 2.1 1.9.9 1.1 1.5 2.3 2.6 3.4 1.9 1.9 5.1 2.7 7.9 2.8 1.7 0 3.3-.1 4.9-.3z"
        opacity=".1" />
    <circle cx="708" cy="182.3" fill="#3f3d56" r="100" />
    <path
        d="m750.9 208.1c-3.5-3.5-11.8-8.7-16-10.7-4.8-2.3-6.5-2.3-9.9.2-2.8 2-4.7 3.9-7.9 3.2s-9.7-5.5-15.9-11.7-11-12.6-11.7-15.9 1.2-5.1 3.2-7.9c2.4-3.4 2.5-5.1.2-9.9-2-4.1-7.2-12.5-10.7-16s-4.3-2.7-6.2-2c-2 .8-3.9 1.8-5.7 3-3.5 2.3-5.4 4.3-6.8 7.2s-2.9 8.3 5 22.5c5.9 10.9 13.3 20.8 22.1 29.5 8.7 8.8 18.7 16.3 29.6 22.1 14.2 8 19.6 6.4 22.5 5s4.9-3.3 7.2-6.8c1.2-1.8 2.2-3.7 3-5.7.7-1.9 1.5-2.7-2-6.1z"
        fill="#f9a826" />
    <path
        d="m708 82.3c-55.2 0-100 44.7-100 100 0 55.2 44.7 100 100 100 55.2 0 100-44.7 100-100v-.1c-.1-55.1-44.8-99.9-100-99.9zm0 186.6c-47.9 0-86.7-38.8-86.7-86.7s38.8-86.7 86.7-86.7 86.7 38.8 86.7 86.7c-.1 47.9-38.9 86.7-86.7 86.7z"
        opacity=".1" />
    <circle cx="525.4" cy="338.1" fill="#3f3d56" r="100" />
    <path
        d="m582.2 307.9-29.9 30.5c-.2.2-.2.5 0 .8l21 22.3c1.4 1.4 1.4 3.7 0 5.1-.7.7-1.6 1-2.5 1.1-1 0-1.9-.4-2.6-1.1l-20.9-22.3c-.2-.2-.6-.2-.8 0l-5.1 5.1c-4.2 4.3-10 6.7-16 6.7-6.1 0-12-2.5-16.3-6.9l-4.9-5c-.2-.2-.6-.2-.8 0l-20.8 22.2c-1.4 1.4-3.7 1.4-5.1 0-1.4-1.4-1.4-3.7 0-5.1l20.9-22.3c.2-.2.2-.6 0-.8l-29.9-30.5c-.2-.2-.6-.2-.8 0-.1.1-.2.2-.2.4v60.9c0 4.9 4 8.9 8.9 8.9h97.9c4.9 0 8.9-4 8.9-8.9v-60.9c0-.3-.2-.6-.5-.6-.2.3-.4.3-.5.4z"
        fill="#f9a826" />
    <path
        d="m525.4 349c4.1 0 8-1.6 10.9-4.5l43.6-44.4c-1.5-1.3-3.5-2-5.5-2h-97.9c-2 0-4 .7-5.5 2l43.6 44.4c2.8 2.9 6.7 4.5 10.8 4.5z"
        fill="#f9a826" />
    <path
        d="m524.1 238.2c-55.2 0-100 44.7-100 100 0 55.2 44.7 100 100 100 55.2 0 100-44.7 100-100v-.1c-.1-55.1-44.8-99.9-100-99.9zm0 186.6c-47.9 0-86.7-38.8-86.7-86.7s38.8-86.7 86.7-86.7 86.7 38.8 86.7 86.7c0 47.9-38.8 86.7-86.7 86.7z"
        opacity=".1" />
    <circle cx="306.9" cy="247" fill="#3f3d56" r="100" />
    <path d="m306.9 199.2-39.9 91.9 3.7 3.7 36.1-15.9 36.1 15.9 3.7-3.7z" fill="#f9a826" />
    <path
        d="m306.9 147c-55.2 0-100 44.7-100.1 99.9 0 55.2 44.7 100 99.9 100.1 55.2 0 100-44.7 100.1-99.9 0 0 0 0 0-.1.1-55.2-44.7-100-99.9-100zm0 186.6c-47.9 0-86.7-38.8-86.7-86.7s38.8-86.7 86.7-86.7 86.7 38.8 86.7 86.7c0 48-38.8 86.8-86.7 86.7z"
        opacity=".1" />
    <path
        d="m814.2 317.2c-.9-2.2-1.8-4.4-2.8-6.6-.8-2.1-1.9-4.1-3.4-5.9-.6-.6-1.2-1.1-2-1.5-.8-.3-1.7-.5-2.6-.5-1.4-.2-2.7-.2-4.1-.1-.5-.2-1.1-.4-1.7-.6 6.1-1.6 10.4-7 10.6-13.3 0-.2 0-.4 0-.6 0-7.9-6.3-14.3-14.2-14.3-2.6 0-5.2.7-7.5 2.1-6.1-1.4-12.3 1.6-15 7.2-3.3 3.2-5.2 7.7-5.1 12.3v.6c.3 7.8 5.3 14 11.6 14.6-.7.3-1.3.7-1.8 1.2-1.9 1.9-2.3 4.8-2.5 7.5l-.2 2-3.4 1.2c-.3.1-.5.5-.4.8 0 .1.1.2.2.3l3.2 2.3v.6s0 .4.1.7c-.5.5-1 1.1-1.2 1.8-.3 1-.4 2.2-.3 3.2l.1 2.8c0 2.1.3 4.2.8 6.2.4 1.2 2.2 4.2 3.5 4.3-1.2 5.5-1.5 17.1-1.5 17.1-.2.2.3.3 1 .4.7 5.5 3.1 21 7.2 27.8.7 2.2 1.2 4.5 1.6 6.8 0 0 1.2 14.7 2.8 19.1 1.3 3.7 2.4 12.9 2.7 15.6-.6.1-1 .6-1.1 1.1-.8 2.4-5.9 6-5.9 6-1.6.8-3.1 1.7-4.4 2.8-1.6 1.5-1.5 2.8 5.6 1.9 13.8-1.6 16.2-6 16.2-6s-.2-.7-.5-1.7c-.4-1.5-1-2.9-1.8-4.3-.2-.2-.4.1-.6.6-1-6.4-1.4-12.9-.9-19.3 0 0 .4-6.8-1.6-11.5-.4-2.5-.4-5.1 0-7.5.8-3.2-3.2-18.7-3.2-18.7l-2.3-11.4c.3.4.5.8.6 1.3l.1.2.1.3c0 .1.1.2.2.3 1.5 6.4 5.8 24.1 5.8 26.7 0 3.2 3.9 11.1 3.9 11.1s1.6 13.1 4.3 18.3c2.1 3.9 2.2 9.7 2 12.2s-.5 3.3-1.3 4.1c-.6.8-1.1 1.7-1.5 2.6l-.1.2s-1.2 2.4-.4 2.8c3 1.2 6.3 1.6 9.5 1.2 0 0 1.6-2 1.6-2.8 0-.5-.1-1-.2-1.4-.3-1.9-.8-4.8-.8-4.9.3-1.3-1-4.8-1-4.8l-.4-11.1c.7-7.5-.2-15.1-2.8-22.3 0 0-2-7.2-1.6-9.1s-.8-23.1-.8-23.1l-.1-.3c-.1-1.5-.1-3 .1-4.5.4-4.8-1.2-14.7-1.6-15.1-.3-1.1-.5-2.2-.6-3.3.1-.8.4-3.3.7-6.3 3.9-.1 7.8-.5 11.6-1 .4 0 .7-.1 1-.4.2-.2.2-.5.2-.8.7-5.9-1.4-11.7-3.7-17.2zm-7.9 12.6c.4-2.8.8-5.6 1.3-7.7l.1.2c.8 2.1 1.4 4.2 1.9 6.3-1.1.5-2.2.9-3.3 1.2z"
        fill="url(#d)" />
    <path
        d="m775.6 362s2.4 21.2 7.5 29.5c.7 2.2 1.2 4.4 1.6 6.7 0 0 1.2 14.5 2.8 18.9s2.8 16.1 2.8 16.1 5.5 6.3 7.5 1.2c-1.2-6.7-1.6-13.6-1.2-20.4 0 0 .4-6.7-1.6-11.4-.4-2.5-.4-5 0-7.5.8-3.2-3.2-18.5-3.2-18.5l-3.1-15.3z"
        fill="#be6f72" />
    <path
        d="m800.4 438.2s-2.4 4.3-16.1 5.9c-7.1.8-7.2-.5-5.6-1.9 1.4-1.1 2.8-2 4.4-2.8 0 0 5.1-3.5 5.9-5.9s3.5-.4 3.5-.4c3.9 5.9 4.7-1.6 5.5-.8.8 1.3 1.4 2.7 1.8 4.2.4 1 .6 1.7.6 1.7z"
        fill="#3f3d56" />
    <path
        d="m796.5 413.8s.4-6.7-1.6-11.4c-.4-2.5-.4-5 0-7.5.8-3.2-3.2-18.5-3.2-18.5l-3.1-15.3-2.7.2 3.1 15.2s3.9 15.3 3.2 18.5c-.4 2.5-.4 5 0 7.5 2 4.7 1.6 11.4 1.6 11.4-.5 6.8-.1 13.7 1.2 20.4-.2.6-.6 1.2-1.1 1.6 1.5.7 3 .6 3.9-1.6-1.4-6.8-1.8-13.6-1.3-20.5z"
        opacity=".1" />
    <path
        d="m793.9 275.7c-2.6 0-5.2.7-7.4 2.1-6.1-1.4-12.3 1.6-15 7.2-3.3 3.2-5.2 7.6-5.1 12.2 0 8.4 5.6 15.1 12.6 15.1 5 0 9.4-3.6 11.4-8.7 1.2.3 2.3.5 3.5.5 7.8 0 14.1-6.3 14.1-14.2s-6.3-14.2-14.1-14.2z"
        fill="#3f3d56" />
    <path
        d="m805.5 363.9 1.2 3.1s1.2 20.8.8 22.8 1.6 9 1.6 9c2.5 7 3.5 14.6 2.8 22l.4 11s1.6 4.3.8 5.1-6.7-.7-6.7-.7.8-8.3-2-13.4-4.3-18.1-4.3-18.1-3.9-7.9-3.9-11-6.3-28.7-6.3-28.7z"
        fill="#be6f72" />
    <path
        d="m774.8 363.5s.4-14.2 2-18.5c.8-2 1.4-4.1 1.8-6.3 0 0 23.8 4.3 25.8 2.7 0 0 .4 5.5.8 5.9s2 10.2 1.6 14.9 0 4.7 0 4.7-16.1 2.4-16.5 0-1.6-2.3-1.6-2.3-14.6-.3-13.9-1.1z"
        fill="#3f3d56" />
    <g opacity=".1">
        <path
            d="m787.8 363.5s-9.9-.3-12.9-.8v.8c-.8.8 13.8 1.2 13.8 1.2.2 0 .4.1.5.2-.6-1.4-1.4-1.4-1.4-1.4z" />
        <path
            d="m805.1 347.4c-.4-.4-.8-5.9-.8-5.9-.2.1-.4.2-.7.2.1 1.7.4 4.2.7 4.5s2 10.2 1.6 14.9 0 4.7 0 4.7-12.8 1.9-15.8.6c0 .2.1.4.1.6.4 2.4 16.5 0 16.5 0s-.4 0 0-4.7-1.2-14.5-1.6-14.9z" />
        <path
            d="m787.8 363.5s-9.9-.3-12.9-.8v.8c-.8.8 13.8 1.2 13.8 1.2.2 0 .4.1.5.2-.6-1.4-1.4-1.4-1.4-1.4z"
            fill="url(#e)" />
        <path
            d="m805.1 347.4c-.4-.4-.8-5.9-.8-5.9-.2.1-.4.2-.7.2.1 1.7.4 4.2.7 4.5s2 10.2 1.6 14.9 0 4.7 0 4.7-12.8 1.9-15.8.6c0 .2.1.4.1.6.4 2.4 16.5 0 16.5 0s-.4 0 0-4.7-1.2-14.5-1.6-14.9z"
            fill="url(#f)" />
    </g>
    <path
        d="m792.2 300.5c.3.8.9 1.4 1.5 1.9.4.3.9.5 1.4.6-.9.5-1.8.9-2.7 1.4-1.4.9-2.7 1.9-4 3s-2.9 1.7-4.6 1.8c1.2-1.6 1.4-3.7.6-5.6-.4-.6-.6-1.3-.7-1.9 0-1.1 1-2 1.9-2.6.8-.5 1.5-1 2.3-1.5.6-.4 1.5-1.2 2.3-1.2s.9.7 1 1.4c.2.9.5 1.8 1 2.7z"
        fill="#be6f72" />
    <path
        d="m792.2 300.5c.3.8.9 1.4 1.5 1.9.4.3.9.5 1.4.6-.9.5-1.8.9-2.7 1.4-1.4.9-2.7 1.9-4 3s-2.9 1.7-4.6 1.8c1.2-1.6 1.4-3.7.6-5.6-.4-.6-.6-1.3-.7-1.9 0-1.1 1-2 1.9-2.6.8-.5 1.5-1 2.3-1.5.6-.4 1.5-1.2 2.3-1.2s.9.7 1 1.4c.2.9.5 1.8 1 2.7z"
        opacity=".1" />
    <circle cx="801.4" cy="314.6" fill="#be6f72" r="9" />
    <path
        d="m814.1 442.9c0 .8-1.6 2.8-1.6 2.8-3.2.4-6.4 0-9.4-1.2-.8-.4.4-2.8.4-2.8l.1-.2c.4-.9.9-1.8 1.5-2.6.8-.8 1.3-4 1.3-4 2.4-4 6.8 1.7 6.8 1.7s.5 3 .8 4.8c.1.8.1 1.3.1 1.5z"
        fill="#3f3d56" />
    <circle cx="783.3" cy="295.7" fill="#be6f72" r="8.8" />
    <path
        d="m776.2 313.4c-1.9 1.8-2.3 4.8-2.5 7.5l-.3 3.9c-.1 1.1-.1 2.1-.1 3.2 0 .7.2 1.3.2 2s.1 1.6.1 2.3v5.8c-.1 1.2.1 2.4.6 3.5.6 1.1 1.9 1.6 3 1.1.6-.5 1.1-1.2 1.2-1.9 1-2.3 1.6-4.8 2-7.3.1-.9.1-1.7.2-2.6s.2-1.8.4-2.7c.6-3.7.8-7.4 1.1-11.1.1-1.1 1.1-5.4-.4-5.9-.7-.2-2.2.5-2.8.7-1 .3-1.9.8-2.7 1.5z"
        fill="#be6f72" />
    <path
        d="m776.2 313.4c-1.9 1.8-2.3 4.8-2.5 7.5l-.3 3.9c-.1 1.1-.1 2.1-.1 3.2 0 .7.2 1.3.2 2s.1 1.6.1 2.3v5.8c-.1 1.2.1 2.4.6 3.5.6 1.1 1.9 1.6 3 1.1.6-.5 1.1-1.2 1.2-1.9 1-2.3 1.6-4.8 2-7.3.1-.9.1-1.7.2-2.6s.2-1.8.4-2.7c.6-3.7.8-7.4 1.1-11.1.1-1.1 1.1-5.4-.4-5.9-.7-.2-2.2.5-2.8.7-1 .3-1.9.8-2.7 1.5z"
        opacity=".1" />
    <path
        d="m794.5 301.4s-6.7 5.1-10.6 6.3c0 0-2.3 2.7-2.7 3.3s-1.2 7.7-2 9.3-2.8 5.1 0 8.6c0 0 .8 3.5.4 4.7s-1.8 5.5-.5 5.7 5.2 2.9 8.8 2.2 16.7 3 16.7 3 2.2-20.2 3.8-23.8l-3.5-1.2s-9.8-5.9-3.9-14.9c-.2 0-5.7-1.2-6.5-3.2z"
        fill="#f9a826" />
    <path
        d="m770.1 325.1 8.1 5.8c.2.2.5.2.7 0l2.2-1.7c.3-.2.3-.6.1-.9 0 0 0 0-.1-.1l-6.3-5.5c-.2-.2-.4-.2-.6-.1l-4 1.4c-.3.1-.5.5-.4.8.1.1.2.2.3.3z"
        fill="#3f3d56" />
    <path
        d="m772.8 342.4c-.6-2-.9-4.1-.8-6.1l-.1-2.8c-.1-1.1 0-2.2.3-3.2.6-1.4 1.9-2.5 3.4-3 1.5-.4 3.1-.5 4.6-.3.2 0 .4.1.6.2s.3.3.3.5c.5.9.5 1.9.2 2.9-.2.4-.5.7-.9 1-1.1.8-2.4 1.3-3.4 2.2-.2.1-.4.3-.5.6v.6c.1.6.3 1.1.5 1.6.1.3.2.5.5.7.2.2.4.2.6.4.4.3 1.3.8 1.3 1.4-.2 2-1.3 4.2-1.8 6.2-1 3.8-4.2-1.2-4.8-2.9z"
        fill="#be6f72" />
    <g opacity=".1">
        <path d="m785.5 341.5h-.2c.8.2 1.7.2 2.6 0h.3c-1-.1-1.9-.1-2.7 0z" />
        <path d="m806.1 320.1c-1.4 3.2-3.5 20.3-3.9 23.8 1.4.4 2.3.6 2.3.6s2.2-20.2 3.7-23.8z" />
    </g>
    <path
        d="m801.7 314.9c.1.8.6 1.5 1.3 2 .8.7 1.6 1.5 2.3 2.3 1 1.4 1.8 2.9 2.3 4.5.8 2 1.4 4.1 1.9 6.2-5 2.3-10.7 2.2-16 3.7-2.3.6-4.4 1.8-6 3.5s-2.5 4.1-2.2 6.5c0 .1 0 .3.1.4.2.2.4.3.7.3 1.3 0 2.6-.4 3.7-1.3 1-.8 2-1.7 2.8-2.8.5-.7 1.2-1.2 2-1.5 2.9-.9 6-.8 9-.9 4.5-.1 9-.4 13.4-1.1.6.1 1.1-.4 1.2-.9 0-.1 0-.2 0-.3.4-5.9-1.8-11.7-4-17.1-.9-2.2-1.8-4.4-2.8-6.5-.8-2.1-1.9-4.1-3.4-5.8-.6-.6-1.2-1.1-2-1.5-.9-.3-1.8-.5-2.7-.5-1.5-.2-2.9-.2-4.4-.1-.2.7-.4 1.5-.4 2.3.1 2.7 1.3 5.2 2.4 7.7.1.5.5.5.8.9z"
        fill="#be6f72" />
    <path
        d="m790.8 287.1c-.5 0-1 .1-1.5.2-1.3-2-4.4-3.4-8-3.4-4.8 0-8.7 2.5-8.7 5.5s3.9 5.5 8.7 5.5c1.8 0 3.6-.4 5.2-1.1 1.1 2.3 3.9 3.3 6.3 2.2 2.3-1.1 3.3-3.9 2.2-6.3-.8-1.6-2.5-2.6-4.2-2.6z"
        fill="#3f3d56" />
    <path
        d="m791.1 295.3c-1.8 0-3.5-1-4.2-2.7-1.6.7-3.4 1.1-5.2 1.1-4.8 0-8.6-2.5-8.6-5.5 0-.2 0-.4 0-.5-.3.5-.4 1.1-.4 1.7 0 3 3.9 5.5 8.7 5.5 1.8 0 3.6-.4 5.2-1.1 1.1 2.3 3.9 3.3 6.3 2.2 1.3-.6 2.3-1.9 2.6-3.4-.9 1.7-2.6 2.7-4.4 2.7z"
        opacity=".1" />
    <path
        d="m771.5 287.3c2.7-5.6 8.9-8.5 15-7.2 6.6-4.1 15.4-2 19.5 4.6 1.2 1.9 1.9 4 2.1 6.3 0-.4 0-.8 0-1.2 0-7.8-6.4-14.1-14.2-14.1-2.6 0-5.2.7-7.4 2.1-6.1-1.4-12.3 1.6-15 7.2-3.3 3.2-5.2 7.6-5.1 12.2v1.2c.1-4.3 2-8.3 5.1-11.1z"
        opacity=".1" />
    <path
        d="m446.5 371.9c0-3.1-1.4-6-3.9-7.9 0-5.6-4.1-10.4-9.6-11.3-.8-4-3.8-7.3-7.6-8.5-.5-.1-.9-.3-1.4-.3h-.1-.3-.2-.2-.3-.6c-5.5.1-10.1 4.2-10.9 9.6-3.5-.8-6.7.2-7.3 2.5-.1.6-.1 1.2.1 1.8.6 1.7 2.5 3.4 5.2 4.2l.3.1.5.1h.1c-.6 1.2-.8 2.5-.8 3.8 0 3.3 1.8 6.3 4.7 7.8l-.2.1c-.3.3-.6.7-.8 1.1-.6 1.1-1.1 2.3-1.5 3.5-.3 1.1-.3 2.2-.6 3.2-.6 1.9-2.1 3.6-2.2 5.6-.1.9.1 2-.6 2.6-.2.1-.3.3-.5.4-.4.3-.8.7-1.1 1.2-.2.4-.5.8-.8 1.1-.6.4-1.5.4-1.8 1.1s.5 1.5.3 2.2-.8.9-1.2 1.3c-.5.6-.9 1.3-1.1 2-1.9.4-3.9-.1-5.4-1.4.3.6.4 1.3.6 2-.9-.7-1.9-1.2-2.9-1.5-1.2-.5-2.2-1.3-3.1-2.3l1.7-.2-7.3-11.2-2.2-.5 1.9 3.7c-.3.1-.6.4-.7.8s-.1.8-.1 1.3c.1 1 .3 2 .5 3l.6 2.6c0 .2.1.5.2.7-.7 0-1.5 0-2.2.2-1.5-.5-3-.9-4.5-1.1-.3-.1-.7-.1-1 0-.4.2-.7.4-1 .8-1.3 1.5-2.4 3-3.4 4.7-4 6.9-9.2 12.8-14.1 19-3.4 1.4-6.8 2.7-10.3 4l-7.4 2.8c-1.4.7-3 1-4.6 1-.7 0-1.6-.2-2 .5-.2.3-.3.6-.5 1l-.8.1c-.3-1.2-1-2.3-1.8-3.3-.4.1-.7.3-.8.6-.2.3-.3.7-.5 1-.4.6-1.1.9-1.6 1.3s-.8 1.3-1.3 1.8c-.7.5-1.6.9-2.5 1-1.4.3-2.7.8-3.9 1.5-.5.3-.9.5-1.5.7-.6.1-1.1.1-1.7.1l-3.9-.3c-.4 0-.7 0-1 0-.8.3-1.3 1.1-1.2 2s.5 1.6 1.2 2.2c.7.5 1.4.9 2.2 1.2 3.4 1.3 6.9 2.3 10.4 3.1v.8c2.5 1.3 5.2 1.9 8 1.9.2 0 .4 0 .6-.1.3-.2.4-.5.5-.8.8-2.5 1.4-5.1 1.6-7.7.5 0 1-.2 1.4-.4 1.3-.4 2.7.5 4.1.7 1.7.2 3.3-.8 4.9-1.4l.7-.2c-.5.6-1 1.1-1.6 1.5-.7.5-1.4.8-2.1 1.3-.6.5-1.1 1-1.8 1.4-.4.2-.9.4-1.4.5-.7.3-1.3.6-1.9 1-.5.3-1 .8-1.3 1.3s-.4 1.2-.1 1.8c.3.5.8.8 1.3.9s1.1.1 1.6 0c2.1-.2 4.2-.3 6.3-.5.9-.1 1.8-.2 2.6-.4.5-.1.9-.3 1.4-.4.8-.2 1.6-.3 2.4-.4.2 0 .5 0 .7.1.5.2.8.7 1.3.8.3 0 .7 0 1-.1 1.5-.3 3.1-.5 4.7-.5.7 0 1.5-.2 1.8-.8s-.3-1.7-.5-2.5c-.1-.5-.2-1.1-.2-1.7-.1-1.4-.5-2.7-1.2-3.9-.3-.6-.6-1.2-.9-1.8 3-1.1 5.9-2.6 8.6-4.4 1.5-1.1 3.2-1.9 4.9-2.4 2.1-.2 4.2 0 6.2.7 4.8 1.4 9.5 3 14.2 4.9 2.2.9 4.4 1.9 6.7 2.6.7.9 1.5 1.7 2.4 2.3 1.6.9 3.3 1.4 5.1 1.4 2.4.2 4.8.3 7.3.3 1.9.1 3.7-.3 5.4-1 .4-.2.8-.5 1.1-.8 1.3.1 2.6-.4 3.6-1.3 1.3-1.1 2.3-2.6 2.7-4.3.6-2.3.1-5 1.5-6.8.4-.5.9-.9 1.2-1.4.4-.7.7-1.5.6-2.3 0 0 0-.1.1-.1.3-.7.5-1.5.6-2.3.2-.6.4-1.2.7-1.8.7-1.8 1.3-3.6 1.9-5.4.4-1.2.6-2.5.9-3.7.2-1 .2-2 .3-3 .1-1.6.4-3.1.9-4.6 1.3-3.6 2-7.3 2.1-11.1v-.2c3.8-.4 6.7-3.7 6.6-7.6 0-1.1-.2-2.2-.7-3.2 1-1.5 1.5-3.3 1.5-5.1zm-35.8 43.5c.1.4.2.8.4 1.2-.6-.6-1.2-1.2-1.8-1.7.2.1.5.2.7.2.2.1.5.2.7.3zm-2.8-1.9c-3.5-3-7.5-5.3-11-8.2 1.9 1 3.8 2.1 5.7 3.1 2.2 1.3 4.4 2.5 6.7 3.6-.4.6-.9 1.1-1.4 1.5zm1.4-7.6.2-.2v1.2l-.9-.3c.2-.2.5-.4.7-.7zm-30.4 8.1c1.4-1.6 2.7-3.4 3.7-5.3 1.4 2.4 3.6 4.1 5.5 6.1-3.1-.3-6.1-.6-9.2-.8z"
        fill="url(#g)" />
    <path d="m383.8 384.9 2.2.5 7.4 10.9-3.2.5z" fill="#2f2e41" />
    <path
        d="m331 429.5c.6 1.9 1.3 3.8 2.2 5.7 2.5-.5 4.9-1.2 7.3-2.1-.5-.7-1-1.4-1.5-2-.6-.6-1.3-1.2-2-1.6-.8-.2-1.7-.2-2.5 0-1.3 0-2.4 0-3.5 0z"
        fill="#fbbebe" />
    <path
        d="m336.9 432.4c-1.2-.5-2.1-1.6-2.5-2.8s-1-2.4-1.9-3.4c-.4.1-.7.3-.8.6-.2.3-.3.7-.5 1-.4.6-1.1.8-1.6 1.3s-.8 1.2-1.3 1.7c-.7.5-1.6.9-2.5 1-1.4.3-2.7.8-4 1.5-.5.3-1 .5-1.5.7-.6.1-1.1.1-1.7 0l-3.9-.3c-.3-.1-.7-.1-1 0-.8.3-1.3 1.1-1.3 2 .1.9.5 1.6 1.3 2.1.7.5 1.4.9 2.2 1.1 3.4 1.3 7 2.3 10.6 3v.8c2.5 1.2 5.3 1.9 8 1.9.2 0 .4 0 .6-.1.3-.2.4-.5.5-.8.9-2.8 1.5-5.6 1.6-8.6.1-.7 0-1.5-.2-2.2-.2-.6.5-.3-.1-.5"
        fill="#2f2e41" />
    <path
        d="m412.4 417.6c-11.7.7-23.2-2.7-34.9-3.1-1.5-.1-2.9 0-4.3.3-1.5.4-2.9 1-4.3 1.7-6.3 2.9-12.8 5.3-19.2 7.8l-7.5 2.8c-1.4.7-3 1-4.6 1-.7 0-1.6-.2-2 .4-1.2 1.8-.6 4.4.2 6.5.3.7.7 1.4 1.4 1.4.5 0 1-.2 1.4-.4 1.4-.4 2.7.5 4.1.7 1.7.2 3.3-.8 5-1.4 2.7-1 5.6-1 8.5-1.4 4.8-.8 9.2-3 13.3-5.5 1.5-1.1 3.2-1.9 5-2.3 2.1-.2 4.2 0 6.2.7 4.8 1.4 9.6 3 14.3 4.9 2.4 1.1 4.9 2 7.5 2.7 5.5 1.4 11.4 1.1 16.7-1 1.9-.7 3.9-2 4-4.1.1-1.2-.8-2.2-1.4-3.2-.4-.6-.8-1.3-1.2-1.9-2.2-3-4.6-6.8-8.2-6.6z"
        fill="#2f2e41" />
    <path
        d="m412.4 417.6c-11.7.7-23.2-2.7-34.9-3.1-1.5-.1-2.9 0-4.3.3-1.5.4-2.9 1-4.3 1.7-6.3 2.9-12.8 5.3-19.2 7.8l-7.5 2.8c-1.4.7-3 1-4.6 1-.7 0-1.6-.2-2 .4-1.2 1.8-.6 4.4.2 6.5.3.7.7 1.4 1.4 1.4.5 0 1-.2 1.4-.4 1.4-.4 2.7.5 4.1.7 1.7.2 3.3-.8 5-1.4 2.7-1 5.6-1 8.5-1.4 4.8-.8 9.2-3 13.3-5.5 1.5-1.1 3.2-1.9 5-2.3 2.1-.2 4.2 0 6.2.7 4.8 1.4 9.6 3 14.3 4.9 2.4 1.1 4.9 2 7.5 2.7 5.5 1.4 11.4 1.1 16.7-1 1.9-.7 3.9-2 4-4.1.1-1.2-.8-2.2-1.4-3.2-.4-.6-.8-1.3-1.2-1.9-2.2-3-4.6-6.8-8.2-6.6z"
        opacity=".1" />
    <path
        d="m353.4 430c1.8.6 3.7 1.2 5.5 1.7 1-1.7 3-2.9 3.4-4.9 0-.1 0-.2 0-.3s-.1-.1-.2-.2c-1.3-.7-2.8-1.2-4.3-1.3-1.2-.1-1.8 1.2-2.3 2.1-.2.5-1.6 3.1-2.1 2.9z"
        fill="#fbbebe" />
    <path
        d="m356 428.8c-1.1-.2-2.1-.8-2.7-1.8-.3-.5-.5-1.1-1-1s-.7.6-.8 1.1c-.3 1.8-.9 3.5-1.5 5.2-.7 1.7-1.8 3.2-3.2 4.3-.7.5-1.4.8-2.1 1.3-.6.5-1.1.9-1.8 1.3-.4.2-.9.4-1.4.5-.7.3-1.3.6-1.9 1-.5.3-1 .7-1.3 1.3-.3.5-.4 1.2-.1 1.8.3.5.8.8 1.3.9s1.1.1 1.6 0c2.1-.2 4.3-.3 6.4-.5.9-.1 1.8-.2 2.7-.4l1.4-.4c.8-.2 1.6-.3 2.4-.4.2 0 .5 0 .7.1.5.2.8.7 1.4.8.3 0 .7 0 1-.1 1.6-.3 3.1-.5 4.7-.5.7 0 1.5-.2 1.8-.8.4-.8-.3-1.7-.5-2.5-.1-.5-.2-1.1-.2-1.6-.1-1.4-.5-2.7-1.2-3.9-.5-1-1.3-2.1-.9-3.2.2-.3.3-.7.4-1.1-.3-1.8-4.3-1.2-5.2-1.4z"
        fill="#2f2e41" />
    <path
        d="m394.9 398.8c-2.1-.9-3.7-2.6-4.7-4.6-.2-.4-.4-.9-.5-1.3-.6-1.5-1.6-2.8-2.8-3.9-.3-.3-.6-.4-1-.4-.4.1-.7.4-.8.8s-.1.8-.1 1.3c.1 1 .3 2 .5 2.9l.6 2.6c.1.4.2.8.4 1.2s.6.8 1 1.1c.5.5 1 .9 1.6 1.4.3.3.6.5 1 .7.6.3 1.2.4 1.8.5 2.4.3 4.7 1.2 6.6 2.6 0 0 0-1.7 0-1.9 0-.5-.2-1-.5-1.4-1-.8-2-1.3-3.1-1.6z"
        fill="#fbbebe" />
    <path
        d="m394.9 398.8c-2.1-.9-3.7-2.6-4.7-4.6-.2-.4-.4-.9-.5-1.3-.6-1.5-1.6-2.8-2.8-3.9-.3-.3-.6-.4-1-.4-.4.1-.7.4-.8.8s-.1.8-.1 1.3c.1 1 .3 2 .5 2.9l.6 2.6c.1.4.2.8.4 1.2s.6.8 1 1.1c.5.5 1 .9 1.6 1.4.3.3.6.5 1 .7.6.3 1.2.4 1.8.5 2.4.3 4.7 1.2 6.6 2.6 0 0 0-1.7 0-1.9 0-.5-.2-1-.5-1.4-1-.8-2-1.3-3.1-1.6z"
        opacity=".1" />
    <ellipse cx="418.7" cy="376.2" fill="#2f2e41" rx="2.8" ry="2.9" />
    <path
        d="m416.9 374.5c-.8-.2-1.6-.1-2.2.3-.3.3-.6.6-.8 1-.6 1.1-1.1 2.3-1.5 3.5-.3 1-.3 2.1-.6 3.2-.6 1.9-2.1 3.5-2.2 5.5-.1.9.1 1.9-.6 2.5-.2.1-.3.3-.5.4-.5.3-.8.7-1.1 1.2-.2.4-.5.8-.8 1.1-.6.4-1.5.4-1.8 1s.5 1.4.3 2.2-.8.9-1.3 1.3c-.5.6-.9 1.2-1.1 2-1.9.4-3.9-.1-5.4-1.3.7 2 .9 4.1.9 6.2.1.7-.1 1.4-.5 1.9 2.3.2 4.5.6 6.7 1.2.9.3 2 .3 2.9 0 .5-.3 1-.6 1.3-1.1 1.2-1.2 2.5-2.5 2.8-4.2.1-1 .1-1.9 0-2.9.1-1.2.4-2.4.7-3.5.6-2.4 1.1-4.8 1.3-7.2.1-1.5 1.4-2.7 2.1-4 1.3-2.5 2.6-5.2 2.7-8 0-1-.3-2.2-1.3-2.3z"
        fill="#2f2e41" />
    <path
        d="m416.9 374.5c-.8-.2-1.6-.1-2.2.3-.3.3-.6.6-.8 1-.6 1.1-1.1 2.3-1.5 3.5-.3 1-.3 2.1-.6 3.2-.6 1.9-2.1 3.5-2.2 5.5-.1.9.1 1.9-.6 2.5-.2.1-.3.3-.5.4-.5.3-.8.7-1.1 1.2-.2.4-.5.8-.8 1.1-.6.4-1.5.4-1.8 1s.5 1.4.3 2.2-.8.9-1.3 1.3c-.5.6-.9 1.2-1.1 2-1.9.4-3.9-.1-5.4-1.3.7 2 .9 4.1.9 6.2.1.7-.1 1.4-.5 1.9 2.3.2 4.5.6 6.7 1.2.9.3 2 .3 2.9 0 .5-.3 1-.6 1.3-1.1 1.2-1.2 2.5-2.5 2.8-4.2.1-1 .1-1.9 0-2.9.1-1.2.4-2.4.7-3.5.6-2.4 1.1-4.8 1.3-7.2.1-1.5 1.4-2.7 2.1-4 1.3-2.5 2.6-5.2 2.7-8 0-1-.3-2.2-1.3-2.3z"
        opacity=".1" />
    <path
        d="m414.3 420c-2.4-1.2-4.2-3.3-6.2-5.2-3.8-3.5-8.3-6-12.3-9.3-2.6-2.2-5-4.7-7.8-6.6-2.5-1.6-5.4-2.6-8.4-2.9-.3-.1-.7-.1-1 0-.4.2-.7.4-1 .8-1.3 1.4-2.4 3-3.4 4.7-5 8.5-12.1 15.6-18 23.5-.1.2-.2.4-.3.6 0 .3.1.6.2.9l1.2 2.3c.7 1.3 1.8 2.8 3.2 2.6.6-.2 1.2-.6 1.7-1.1l5.4-5.2 5.6-5.4c3.3-3.2 6.7-6.4 8.8-10.4 1.7 2.9 4.7 4.8 6.7 7.5.8 1 1.4 2.1 2.1 3.2 1.1 1.7 2.4 3.3 3.6 5l6.5 8.3c.8 1.2 1.8 2.2 3 3 1.6.9 3.4 1.3 5.2 1.4 2.4.2 4.9.3 7.3.3 1.9.1 3.7-.3 5.5-1 1.7-.8 2.9-2.5 3-4.4-.1-1-.4-1.9-.9-2.7-2.4-4.3-5.4-7.8-9.7-9.9z"
        fill="#2f2e41" />
    <ellipse cx="420.4" cy="378.2" fill="#f9a826" rx="2.2" ry="2.2" />
    <path
        d="m420 376.6c.5 1 .6 2.1.2 3.2-.3 1-.8 2-1.4 2.9-.5.9-1.1 1.8-1.8 2.6 3.4.2 6.6-1.2 9.6-2.8 2.4-1.3 4.8-2.9 6.1-5.3-.8.2-1.6 0-2.2-.4s-1.2-1-1.7-1.6l-1.7-1.9c-.4-.4-.7-.9-1-1.4-.4-.7-.5-1.4-.5-2.2-.7.7-1.4 1.3-2.2 1.9-1.2.8-2.5 1.4-3.8 2.1-.4.3-1.4.7-1.1 1.3s1.1 1 1.5 1.6z"
        fill="#fbbebe" />
    <path
        d="m420 377.7c.5 1 .6 2.1.2 3.2-.3 1-.8 2-1.4 2.9-.5.9-1.1 1.8-1.8 2.6 3.4.2 6.6-1.2 9.6-2.8 2.4-1.3 4.8-2.9 6.1-5.3-.8.2-1.6 0-2.2-.4s-1.2-1-1.7-1.6l-1.7-1.9c-.4-.4-.7-.9-1-1.4-.4-.7-.5-1.4-.5-2.2-.7.7-1.4 1.3-2.2 1.9-1.2.8-2.5 1.4-3.8 2.1-.4.3-1.4.7-1.1 1.3s1.1 1 1.5 1.6z"
        opacity=".1" />
    <path
        d="m420.2 377.2c-.7 1-.7 2.3 0 3.3.1.1.5.9.6.9s.3-.1.4-.2c.8-.8 1.5-1.7 2.1-2.5.7-.9 1.6-1.5 2.7-1.8 1.3-.1 2.7.4 3.7 1.2.5.2.9.6 1.3 1 .2.4.4.9.4 1.4.3 3 .5 6.1.4 9.1.1 2.2-.1 4.4-.4 6.5-.2 1.1-.5 2.2-.7 3.3-.1 1-.2 2-.1 3v4.2c0 .8 0 1.5.2 2.3.2.9.6 1.8.9 2.7.3 1 .5 2.1.6 3.1l.6 4.3c.2 1.4.3 2.8-.5 4-.4.5-.9.9-1.2 1.4-1.4 1.8-1 4.5-1.5 6.7-.5 1.6-1.4 3.1-2.7 4.2-1 .9-2.3 1.4-3.6 1.3-1.8-.3-2.8-2.2-3.3-3.9s-.6-3.6-1.7-5.1c-1-1.1-2.1-2-3.3-2.8-1.3-.8-2.2-2-2.6-3.4-.1-.6 0-1.3-.1-1.9-.2-1.6-1.3-3-2.8-3.7-.9-.3-2-.5-2.5-1.3 1.3-.8 2.2-2.1 2.6-3.5.4-1.5.6-3 .6-4.5l.3-5c.1-2.3.2-4.5 1.2-6.5.4-.9 1-1.8 1.5-2.6.6-1.3 1.1-2.5 1.5-3.9.7-2.1 1.4-4.1 2.1-6.2.2-1 .6-2 1.1-2.9.4-.9 1.2-2 2.2-2.2z"
        fill="#f9a826" />
    <path
        d="m408.8 409.5h1.3l.3-2c0-.4.1-.8.3-1.2s.5-.8.8-1.1c1.3-1.8 1.2-4.3 1.5-6.5.6-3 1.6-5.9 2.9-8.6l2.6-5.8c.2-.5.4-1 .6-1.5.1-.6.2-1.1.2-1.7 0-.9.3-4.1.3-5 0-.3-.7-.2-.9-.4-.3-.6-.8 1.1-1.4 1.5s-1 1-1.2 1.7c-.6 1.4-.9 3-1.4 4.4-.5 1.5-1.3 2.8-2.4 3.9-.5.5-1.1.8-1.6 1.3-1.6 1.6-1.8 4.1-1.8 6.3-.1 1.6-.4 14.7-.1 14.7z"
        fill="#2f2e41" />
    <path
        d="m428 374.5c-1.3.7-2.1 1.9-2.4 3.3-.2 1.4-.6 2.7-1.2 4-1.6 2.8-5.8 3.6-6.9 6.7-.3 1-.4 2.1-.5 3.2-.2 2.2-.9 4.3-1.1 6.5-.1 1.7-.1 3.4.1 5.1l1.5 17.2c.3 2.5.1 5.1-.4 7.6 1.5.2 3 0 4.3-.7 1.4-.6 2.6-1.5 3.9-2.2 2.2-1.2 4.7-2.1 6.7-3.8.4-.3.7-.6.9-1 .3-.7.5-1.5.6-2.3.2-.6.4-1.2.7-1.8.7-1.7 1.3-3.5 1.9-5.3.4-1.2.6-2.4.9-3.6.2-1 .3-2 .3-3 .1-1.6.4-3.1.9-4.5 1.3-3.5 2-7.2 2.1-10.9 0-.5 0-1.1-.1-1.6-.2-.6-.5-1.3-.9-1.8-.6-1.1-1-2.4-1.5-3.5-1.4-2.5-3.5-4.7-5.9-6.2-1.2-1-2.6-1.9-3.9-1.4z"
        fill="#2f2e41" />
    <path
        d="m397.8 402.6c-1-.5-2-1.2-2.8-2.1-.4-.4-.7-.9-1-1.3-.9-1-2.1-1.7-3.5-2-1.3-.3-2.7-.4-4-.4-.9-.1-1.8 0-2.7.3s-1.5 1-1.8 1.9c-.1 1.1.4 2.2 1.4 2.8.8.6 1.7 1.1 2.7 1.3.8.1 1.6.2 2.4.3 4.8.5 9 3.1 13.2 5.5 3.7 2.1 7.4 4 11.3 5.8.1-1.1.2-2.3.2-3.5 0-.9-.1-2.2-.9-2.7-1.2-.5-2.4-.8-3.6-1.1-2.5-.8-4.9-1.8-7.2-2.9-1.2-.5-2.5-1.2-3.7-1.9z"
        fill="#fbbebe" />
    <ellipse cx="418.7" cy="367" fill="#fbbebe" rx="8.5" ry="8.6" />
    <path
        d="m430.4 384.2c-.7 1-1.2 2-1.7 3.1-1 2.2-2.7 4-3.5 6.3s-.8 5.2-2.5 7.1c-.3.3-.6.7-.8 1.1 0 .3 0 .5-.1.8-.3.7-1.4.7-1.6 1.4-.1.2 0 .4-.1.6-.2.5-.8.5-1.2.8-.8.6-.7 1.9-1.3 2.7-.5.6-1.3.9-2.1.8-.8-.2-1.5-.4-2.2-.8-.2-.1-.5-.2-.8-.3-.3 0-.7.1-.9.3-1.5 1.1-2.4 2.9-2.3 4.8s.6 3.7 1.3 5.4c.1.3.2.6.4.8.6.5 1.4.5 2.1.2.7-.4 1.3-.7 2.1-.9 1.3-.2 2.6.7 4 .6 1-.1 1.9-.5 2.7-1.2 1.3-.8 2.6-1.8 3.6-3 .6-.8 1-1.6 1.5-2.5.7-1 1.4-2 2.1-2.9l4.9-6c.5-.6.9-1.2 1.3-1.8.4-.9.8-1.8 1-2.8.5-1.6.9-3.2 1-4.9 0-1.4-.1-2.8-.4-4.1-.1-1.3-.5-2.7-1-3.9-.9-2.2-3.5-4-5.5-1.7z"
        fill="#2f2e41" />
    <path
        d="m447.5 373c0-3.1-1.5-6-3.9-7.8-.1-5.6-4.2-10.3-9.7-11.1-1.2-6-7-9.9-13-8.7-4.6.9-8.1 4.6-8.8 9.3-3.5-.8-6.8.2-7.4 2.4s1.9 5 5.6 6c1.2.3 2.4.5 3.6.4 1.8 2.6 4.5 4.3 7.6 4.8.9 4.2 4.1 7.5 8.3 8.6.6 1.4 1.4 2.6 2.6 3.5v.8c0 4 3.2 7.2 7.2 7.2s7.2-3.2 7.2-7.2c0-1.1-.2-2.2-.7-3.2 1-1.5 1.5-3.2 1.4-5z"
        fill="#f86d70" />
    <path
        d="m407.1 357.6c.6-2.2 3.8-3.2 7.4-2.4.9-5.4 5.5-9.4 11-9.5h.7c-1-.3-2.1-.5-3.1-.5-5.5.1-10.1 4.1-11 9.5-3.5-.8-6.8.2-7.4 2.4s1.9 5 5.6 6c.7.2 1.4.3 2.1.4-3.5-1.1-5.9-3.7-5.3-5.9z"
        opacity=".1" />
    <path
        d="m434.9 381.6c0-.3 0-.5 0-.8-1.1-1-2-2.2-2.6-3.5-4.2-1-7.4-4.4-8.3-8.6-3.1-.4-5.9-2.2-7.6-4.7-.7.1-1.4 0-2.1-.1 1.8 2.4 4.4 4 7.4 4.4.9 4.2 4.1 7.5 8.3 8.6.6 1.4 1.4 2.6 2.6 3.5v.8c-.1 4 3.1 7.4 7.2 7.5-3.1-1.2-5-4-4.9-7.1z"
        opacity=".1" />
    <ellipse cx="421.5" cy="368.8" fill="#fbbebe" rx="1.3" ry="1.8"
        transform="matrix(.7963 -.6049 .6049 .7963 -137.2214 330.1056)" />
</svg>