<svg enable-background="new 0 0 1080 1080" viewBox="0 0 1080 1080" xmlns="http://www.w3.org/2000/svg"><path d="m27 910h620v2h-620z" fill="#3f3d56"/><path d="m27 954h620v2h-620z" fill="#3f3d56"/><path d="m27 998h536v2h-536z" fill="#3f3d56"/><circle cx="146.3" cy="605.9" fill="#f2f2f2" r="84.8"/><circle cx="160.2" cy="593.5" fill="#f9a826" r="84.8"/><path d="m315.3 21h-269.4c-10 0-18.1 8.1-18.1 18.1v367.3c0 10 8.1 18.1 18.1 18.1h659.1c10 0 18.1-8.1 18.1-18.1v-367.2c0-10-8.1-18.1-18.1-18.1h-268.2" fill="#3f3d56"/><path d="m52.1 53.1h646.8v364.8h-646.8z" fill="#f9a826"/><path d="m513.9 417.9h-461.8v-364.8z" opacity=".1"/><circle cx="153.3" cy="328.4" fill="#f2f2f2" r="62.2"/><g fill="#3f3d56"><path d="m525.9 249.8h60.4v12.6h-60.4z"/><path d="m452.8 151.5h206.5v5.4h-206.5z"/><path d="m452.8 168.7h206.5v5.4h-206.5z"/><path d="m452.8 185.8h206.5v5.4h-206.5z"/><path d="m452.8 202.9h206.5v5.4h-206.5z"/><path d="m452.8 220.1h206.5v5.4h-206.5z"/><path d="m389.8 608.1h206.5v5.4h-206.5z"/><path d="m389.8 575.1h206.5v5.4h-206.5z"/></g><path d="m634 60.4h25.3v25.3h-25.3z" fill="#f2f2f2"/><path d="m671 97.4h-30.7v-30.6h30.6v30.6zm-29.3-1.3h28v-28.1h-28z" fill="#3f3d56"/><path d="m741.4 411.2h-63.1v-4.5c0-.5-.4-.9-.9-.9h-21.6c-.5 0-.9.4-.9.9v4.5h-13.5v-4.5c0-.5-.4-.9-.9-.9h-21.6c-.5 0-.9.4-.9.9v4.5h-13.5v-4.5c0-.5-.4-.9-.9-.9h-21.6c-.5 0-.9.4-.9.9v4.5h-13.5v-4.5c0-.5-.4-.9-.9-.9h-21.6c-.5 0-.9.4-.9.9v4.5h-13.5v-4.5c0-.5-.4-.9-.9-.9h-21.6c-.5 0-.9.4-.9.9v4.5h-13.5v-4.5c0-.5-.4-.9-.9-.9h-21.6c-.5 0-.9.4-.9.9v4.5h-13.5v-4.5c0-.5-.4-.9-.9-.9h-170c-.5 0-.9.4-.9.9v4.5h-13.5v-4.5c0-.5-.4-.9-.9-.9h-21.7c-.5 0-.9.4-.9.9v4.5h-13.5v-4.5c0-.5-.4-.9-.9-.9h-21.7c-.5 0-.9.4-.9.9v4.5h-13.5v-4.5c0-.5-.4-.9-.9-.9h-21.7c-.5 0-.9.4-.9.9v4.5h-13.5v-4.5c0-.5-.4-.9-.9-.9h-21.7c-.5 0-.9.4-.9.9v4.5h-13.5v-4.5c0-.5-.4-.9-.9-.9h-21.4c-.5 0-.9.4-.9.9v4.5h-13.6v-4.5c0-.5-.4-.9-.9-.9h-21.7c-.5 0-.9.4-.9.9v4.5h-41.5c-12 0-21.6 9.7-21.6 21.6v9.8c0 12 9.7 21.6 21.6 21.6h719.5c12 0 21.6-9.7 21.6-21.6v-9.8c.1-11.9-9.6-21.6-21.5-21.6z" fill="#3f3d56"/><path d="m168.4 367.2c-43.3 0-78.3-35-78.3-78.3s35-78.3 78.3-78.3 78.3 35 78.3 78.3c-.1 43.2-35.1 78.3-78.3 78.3zm0-154.6c-42.2 0-76.3 34.1-76.3 76.3s34.1 76.3 76.3 76.3 76.3-34.1 76.3-76.3c-.1-42.1-34.2-76.2-76.3-76.3z" fill="#3f3d56"/><path d="m120 817.5h59.8v59.8h-59.8z" fill="#f9a826"/><path d="m216 843.1h-72.6v-72.6h72.6zm-69.4-3.2h66.2v-66.2h-66.2z" fill="#3f3d56"/><path d="m723 112.2h335v2.6h-335z" fill="#3f3d56"/><path d="m998.6 98.4h36.8v36.8h-36.8z" fill="#f9a826"/><path d="m1057.7 114.2h-44.7v-44.7h44.7zm-42.7-2h40.7v-40.7h-40.7z" fill="#3f3d56"/><path d="m0 742h778v2.1h-778z" fill="#3f3d56"/><path d="m713 731.1h29.7v29.1h-29.7z" fill="#f9a826"/><path d="m760.8 743.6h-36.1v-35.4h36.1zm-34.5-1.6h32.9v-32.3h-32.9z" fill="#3f3d56"/><path d="m792.5 277c-22.7 0-41.1-18.4-41.1-41.1s18.4-41.1 41.1-41.1 41.1 18.4 41.1 41.1-18.4 41.1-41.1 41.1zm0-81.3c-22.2 0-40.2 18-40.2 40.2s18 40.2 40.2 40.2 40.2-18 40.2-40.2c-.1-22.2-18-40.2-40.2-40.2z" fill="#3f3d56"/><path d="m389.3 642.3h68.7v20.3h-68.7z" fill="#3f3d56"/><path d="m874.3 345.3h68.7v20.3h-68.7z" fill="#3f3d56"/><path d="m1072.4 622.1h-3.3v-88.7c0-28.3-23-51.3-51.3-51.3h-188c-28.3 0-51.3 23-51.3 51.3v486.6c0 28.3 23 51.3 51.3 51.3h188c28.3 0 51.3-23 51.3-51.3v-334.9h3.3z" fill="#3f3d56"/><path d="m1058.2 536.3v485.9c0 21.2-17.2 38.4-38.4 38.4h-188.8c-21.2 0-38.4-17.2-38.4-38.4v-485.9c0-21.2 17.1-38.4 38.4-38.4h22.9c-3.8 9.3.7 20 9.9 23.7 2.2 1 4.5 1.4 6.9 1.4h107.7c10.1 0 18.2-8.2 18.2-18.2 0-2.3-.4-4.6-1.4-6.9h24.5c21.4.2 38.5 17.3 38.5 38.4z" fill="#f9a826"/><path d="m897.3 818.3h56.2v16.6h-56.2z" fill="#3f3d56"/><path d="m829.3 688.6h192.2v7.1h-192.2z" fill="#3f3d56"/><path d="m829.3 711.2h192.2v7.1h-192.2z" fill="#3f3d56"/><path d="m829.3 733.8h192.2v7.1h-192.2z" fill="#3f3d56"/><path d="m829.3 756.4h192.2v7.1h-192.2z" fill="#3f3d56"/><path d="m829.3 779.1h192.2v7.1h-192.2z" fill="#3f3d56"/><path d="m898.8 593.7h33.3v33.3h-33.3z" fill="#f2f2f2"/><path d="m911.6 602.1v40.4h40.4v-40.4zm38.7 38.7h-37v-37h37z" fill="#3f3d56"/><path d="m1058.2 970.4v51.9c0 21.2-17.2 38.4-38.4 38.4h-188.8c-21.2 0-38.4-17.2-38.4-38.4v-261.7l159.1 125.6 2.7 2.2 29.5 23.4 2.7 2.2z" opacity=".1"/><circle cx="909" cy="985.1" fill="#f2f2f2" r="59.8"/><path d="m926.7 1031.1c-41.4 0-74.9-33.5-74.9-74.9s33.5-74.9 74.9-74.9 74.9 33.5 74.9 74.9c-.2 41.4-33.6 74.9-74.9 74.9zm0-147c-39.9 0-72.1 32.3-72.1 72.1 0 39.9 32.3 72.1 72.1 72.1s72.1-32.3 72.1-72.1c-.1-39.7-32.3-72-72.1-72.1z" fill="#3f3d56"/></svg>