<svg enable-background="new 0 0 1139.2 654.5" viewBox="0 0 1139.2 654.5" xmlns="http://www.w3.org/2000/svg"><circle cx="246.8" cy="521.8" fill="#f2f2f2" r="59.2"/><circle cx="256.5" cy="513.1" fill="#f9a826" r="59.2"/><path d="m304.2 447.5h733v2h-733z" fill="#3f3d56"/><path d="m305.7 18.7h-261.3c-9.7 0-17.6 7.9-17.6 17.6v356.3c0 9.7 7.9 17.6 17.6 17.6h639.4c9.7 0 17.6-7.9 17.6-17.6v-356.3c0-9.7-7.9-17.6-17.6-17.6h-260.2" fill="#3f3d56"/><path d="m50.4 49.8h627.4v353.9h-627.4z" fill="#f9a826"/><path d="m498.4 403.7h-448v-353.9z" opacity=".1"/><circle cx="148.6" cy="316.9" fill="#f2f2f2" r="60.3"/><g fill="#3f3d56"><path d="m510 240.6h58.6v12.2h-58.6z"/><path d="m439.1 145.3h200.3v5.2h-200.3z"/><path d="m439.1 161.9h200.3v5.2h-200.3z"/><path d="m439.1 178.5h200.3v5.2h-200.3z"/><path d="m439.1 195.1h200.3v5.2h-200.3z"/><path d="m439.1 211.8h200.3v5.2h-200.3z"/></g><path d="m614.9 56.9h24.5v24.5h-24.5z" fill="#f2f2f2"/><path d="m650.8 92.8h-29.8v-29.7h29.7v29.7zm-28.5-1.3h27.2v-27.2h-27.2z" fill="#3f3d56"/><path d="m719 397.2h-61.2v-4.4c0-.5-.4-.9-.9-.9h-21c-.5 0-.9.4-.9.9v4.4h-13.1v-4.4c0-.5-.4-.9-.9-.9h-21c-.5 0-.9.4-.9.9v4.4h-13.1v-4.4c0-.5-.4-.9-.9-.9h-21c-.5 0-.9.4-.9.9v4.4h-13.1v-4.4c0-.5-.4-.9-.9-.9h-21c-.5 0-.9.4-.9.9v4.4h-13.1v-4.4c0-.5-.4-.9-.9-.9h-21c-.5 0-.9.4-.9.9v4.4h-13.1v-4.4c0-.5-.4-.9-.9-.9h-21c-.5 0-.9.4-.9.9v4.4h-13.1v-4.4c0-.5-.4-.9-.9-.9h-164.2c-.5 0-.9.4-.9.9v4.4h-13.1v-4.4c0-.5-.4-.9-.9-.9h-21c-.5 0-.9.4-.9.9v4.4h-13.1v-4.4c0-.5-.4-.9-.9-.9h-21c-.5 0-.9.4-.9.9v4.4h-13.1v-4.4c0-.5-.4-.9-.9-.9h-21c-.5 0-.9.4-.9.9v4.4h-13.1v-4.4c0-.5-.4-.9-.9-.9h-21c-.5 0-.9.4-.9.9v4.4h-13.1v-4.4c0-.5-.4-.9-.9-.9h-20.8c-.5 0-.9.4-.9.9v4.4h-13.1v-4.4c0-.5-.4-.9-.9-.9h-21c-.5 0-.9.4-.9.9v4.4h-40.2c-11.6 0-21 9.4-21 21v9.5c0 11.6 9.4 21 21 21h698c11.6 0 21-9.4 21-21v-9.5c0-11.6-9.4-21-21-21z" fill="#3f3d56"/><path d="m163.2 354.5c-42 0-76-34-76-76s34-76 76-76 76 34 76 76c-.1 42-34.1 76-76 76zm0-150c-40.9 0-74 33.1-74 74s33.1 74 74 74 74-33.1 74-74c-.1-40.8-33.2-73.9-74-74z" fill="#3f3d56"/><path d="m586.2 32.5h255v2h-255z" fill="#3f3d56"/><path d="m406.2 560.5h733v2h-733z" fill="#3f3d56"/><path d="m471 550h28v28h-28z" fill="#f9a826"/><path d="m516 562h-34v-34h34zm-32.5-1.5h31v-31h-31z" fill="#3f3d56"/><path d="m796 22h28v28h-28z" fill="#f9a826"/><path d="m841 34h-34v-34h34zm-32.5-1.5h31v-31h-31z" fill="#3f3d56"/><path d="m1078 550h28v28h-28z" fill="#f9a826"/><path d="m1123 562h-34v-34h34zm-32.5-1.5h31v-31h-31z" fill="#3f3d56"/><path d="m1057.2 232h-2.4v-65.2c0-20.8-16.9-37.7-37.7-37.7h-138.1c-20.8 0-37.7 16.9-37.7 37.7v357.5c0 20.8 16.9 37.7 37.7 37.7h138.1c20.8 0 37.7-16.9 37.7-37.7v-246h2.4z" fill="#3f3d56"/><path d="m1046.8 169v357c0 15.6-12.6 28.2-28.2 28.2h-138.7c-15.6 0-28.2-12.6-28.2-28.2v-357c0-15.6 12.6-28.2 28.2-28.2h16.8c-2.8 6.8.5 14.7 7.3 17.4 1.6.7 3.3 1 5.1 1h79.1c7.4 0 13.4-6 13.4-13.4 0-1.7-.3-3.4-1-5.1h18c15.6.2 28.2 12.8 28.2 28.3z" fill="#f9a826"/><path d="m928.6 376.2h41.3v12.2h-41.3z" fill="#3f3d56"/><path d="m878.6 280.9h141.2v5.2h-141.2z" fill="#3f3d56"/><path d="m878.6 297.5h141.2v5.2h-141.2z" fill="#3f3d56"/><path d="m878.6 314.1h141.2v5.2h-141.2z" fill="#3f3d56"/><path d="m878.6 330.7h141.2v5.2h-141.2z" fill="#3f3d56"/><path d="m878.6 347.4h141.2v5.2h-141.2z" fill="#3f3d56"/><path d="m929.7 211.2h24.5v24.5h-24.5z" fill="#f2f2f2"/><path d="m939.1 217.3v29.7h29.7v-29.7zm28.4 28.5h-27.2v-27.2h27.2z" fill="#3f3d56"/><path d="m1046.8 487.9v38.1c0 15.6-12.6 28.2-28.2 28.2h-138.7c-15.6 0-28.2-12.6-28.2-28.2v-192.2l116.9 92.3 2 1.6 21.7 17.2 2 1.6z" opacity=".1"/><circle cx="937.2" cy="498.7" fill="#f2f2f2" r="43.9"/><path d="m320.2 654.5c-48 0-87-39-87-87s39-87 87-87 87 39 87 87c-.1 48.1-39 87-87 87zm0-172c-46.9 0-85 38.1-85 85s38.1 85 85 85 85-38.1 85-85c-.1-46.9-38.1-84.9-85-85z" fill="#3f3d56"/><path d="m950.2 532.5c-30.4 0-55-24.6-55-55s24.6-55 55-55 55 24.6 55 55c-.1 30.4-24.7 55-55 55zm0-108c-29.3 0-53 23.7-53 53s23.7 53 53 53 53-23.7 53-53c-.1-29.2-23.8-52.9-53-53z" fill="#3f3d56"/></svg>