<svg enable-background="new 0 0 128 128" viewBox="0 0 128 128" xmlns="http://www.w3.org/2000/svg"><path d="m1.4 1.4h125.2v125.2h-125.2z" fill="#f0db4f"/><path d="m116.3 96.7c-.9-5.7-4.6-10.5-15.7-15-3.8-1.8-8.1-3-9.4-5.9-.5-1.7-.5-2.6-.2-3.7.8-3.3 4.8-4.4 7.9-3.4 2 .7 3.9 2.2 5.1 4.7 5.4-3.5 5.4-3.5 9.2-5.9-1.4-2.1-2.1-3.1-3-4-3.2-3.6-7.7-5.5-14.8-5.4l-3.7.5c-3.5.9-6.9 2.7-8.9 5.2-5.9 6.7-4.2 18.5 3 23.3 7.1 5.3 17.5 6.5 18.9 11.5 1.3 6.1-4.5 8.1-10.2 7.4-4.2-.9-6.6-3-9.1-6.9-4.7 2.7-4.7 2.7-9.5 5.5 1.1 2.5 2.3 3.6 4.3 5.8 9.1 9.2 31.8 8.7 35.8-5.2.1-.4 1.2-3.5.3-8.5zm-46.8-37.8h-11.7v30.3c0 6.4.3 12.3-.7 14.1-1.7 3.6-6.2 3.1-8.2 2.4-2.1-1-3.1-2.5-4.3-4.5-.3-.6-.6-1-.7-1.1l-9.5 5.8c1.6 3.2 3.9 6.1 6.9 7.9 4.5 2.7 10.5 3.5 16.7 2.1 4.1-1.2 7.6-3.7 9.4-7.4 2.7-4.9 2.1-10.9 2.1-17.4 0-10.7 0-21.4 0-32.2z" fill="#323330"/></svg>