<svg enable-background="new 0 0 128 128" viewBox="0 0 128 128" xmlns="http://www.w3.org/2000/svg"><path d="m75.7 65.6c-2.3-.8-5.7-.6-10.1-.6h-17.6v23h18.8c2.9 0 5-.3 6.2-.5 2.1-.4 3.9-1.1 5.3-2s2.6-2.2 3.5-3.9 1.4-3.6 1.4-5.8c0-2.6-.7-4.5-2-6.4-1.3-2-3.2-3-5.5-3.8zm-2.4-10.5c2.3-.7 4.1-1.9 5.2-3.5 1.2-1.6 1.8-3.6 1.8-6 0-2.3-.5-4.3-1.6-6.1s-2.7-2.4-4.7-3.1c-2-.6-5.5-.4-10.5-.4h-15.5v20h16.6c4 0 6.9-.4 8.7-.9zm52.7-36.5c0-9.2-7.4-16.6-16.6-16.6h-91.8c-9.2 0-16.6 7.4-16.6 16.6v91.8c0 9.2 7.4 16.6 16.6 16.6h91.8c9.2 0 16.6-7.4 16.6-16.6zm-35.4 66.1c-1.4 2.8-3 4.9-5.1 6.4-2 1.5-4.5 2.8-7.5 3.5-3 .8-6.7 1.3-11.1 1.3h-27.9v-68.9h27.4c5.3 0 9.5.6 12.7 2s5.7 3.5 7.5 6.4 2.7 5.9 2.7 9.1c0 2.9-.8 5.7-2.4 8.3s-4 4.7-7.2 6.3c4.2 1.2 7.4 3.3 9.6 6.2s3.4 6.4 3.4 10.4c-.1 3.3-.8 6.3-2.1 9z" fill="#5b4282"/></svg>