<svg enable-background="new 0 0 128 128" viewBox="0 0 128 128" xmlns="http://www.w3.org/2000/svg"><g fill="#a4c639"><path d="m41.1 1 6.1 10.6c-11.1 5.4-18.6 16-18.6 28.2h35.4 35.4c0-12.2-7.5-22.8-18.6-28.3l6.1-10.5s.3-.6-.3-.9c-.5-.3-.9.2-.9.2l-6.1 10.7c-4.7-2.1-10-3.3-15.6-3.3s-10.9 1.2-15.6 3.3l-6.2-10.7s-.3-.5-.9-.2c-.5.3-.2.9-.2.9zm6 20.5c1.9 0 3.4 1.5 3.4 3.4s-1.5 3.3-3.4 3.3-3.4-1.5-3.4-3.3c.1-1.9 1.6-3.4 3.4-3.4zm33.8 0c1.9 0 3.4 1.5 3.4 3.4s-1.5 3.3-3.4 3.3-3.4-1.5-3.4-3.3c0-1.9 1.5-3.4 3.4-3.4z"/><path d="m28.3 44v52.1c0 2.6 3.2 6 5.9 6h8.4v17.8c0 4.5 3.4 8.2 7.6 8.2s7.6-3.6 7.6-8.2v-17.8h12.3v17.8c0 4.5 3.4 8.2 7.6 8.2s7.7-3.6 7.7-8.2v-17.8h8.4c2.7 0 5.9-3.4 5.9-6v-52.1z"/><path d="m16.5 42.8c4.2 0 7.6 3.8 7.6 8.4v31.9c0 4.7-3.4 8.4-7.6 8.4-4.2 0-7.6-3.8-7.6-8.4v-31.8c0-4.7 3.4-8.5 7.6-8.5z"/><path d="m111.5 42.8c4.2 0 7.6 3.8 7.6 8.4v31.9c0 4.7-3.4 8.4-7.6 8.4-4.2 0-7.6-3.8-7.6-8.4v-31.8c-.1-4.7 3.4-8.5 7.6-8.5z"/></g></svg>