<svg enable-background="new 0 0 128 128" viewBox="0 0 128 128" xmlns="http://www.w3.org/2000/svg"><path d="m47.6 98.1s-4.8 2.8 3.4 3.7c9.9 1.1 14.9 1 25.8-1.1 0 0 2.9 1.8 6.9 3.4-24.4 10.5-55.3-.6-36.1-6zm-3-13.6s-5.3 4 2.8 4.8c10.6 1.1 18.9 1.2 33.4-1.6 0 0 2 2 5.1 3.1-29.5 8.6-62.4.7-41.3-6.3z" fill="#0074bd"/><path d="m69.8 61.3c6 6.9-1.6 13.2-1.6 13.2s15.3-7.9 8.3-17.8c-6.6-9.2-11.6-13.8 15.6-29.6 0 0-42.7 10.7-22.3 34.2z" fill="#ea2d2e"/><path d="m102.1 108.2s3.5 2.9-3.9 5.2c-14.1 4.3-58.7 5.6-71.1.2-4.5-1.9 3.9-4.6 6.5-5.2 2.7-.6 4.3-.5 4.3-.5-5-3.5-32 6.8-13.7 9.8 49.8 8.1 90.8-3.6 77.9-9.5zm-52.2-37.9s-22.7 5.4-8 7.3c6.2.8 18.5.6 30-.3 9.4-.8 18.8-2.5 18.8-2.5s-3.3 1.4-5.7 3.1c-23 6.1-67.5 3.2-54.7-3 10.8-5.2 19.6-4.6 19.6-4.6zm40.7 22.7c23.4-12.2 12.6-23.9 5-22.3-1.8.4-2.7.7-2.7.7s.7-1.1 2-1.5c15-5.3 26.5 15.5-4.8 23.7 0 .1.4-.3.5-.6z" fill="#0074bd"/><path d="m76.5 1.6s13 13-12.3 32.9c-20.3 16-4.6 25.1 0 35.6-11.9-10.7-20.5-20.1-14.7-28.8 8.5-12.9 32.2-19.1 27-39.7z" fill="#ea2d2e"/><path d="m52.2 126c22.5 1.4 57-.8 57.8-11.4 0 0-1.6 4-18.6 7.2-19.2 3.6-42.9 3.2-56.9.9.1 0 2.9 2.4 17.7 3.3z" fill="#0074bd"/></svg>