<svg enable-background="new 0 0 128 128" viewBox="0 0 128 128" xmlns="http://www.w3.org/2000/svg"><path d="m58.7 1.4c3.2-1.8 7.3-1.8 10.4 0l48 27c3 1.7 5 5 5 8.5v54.2c0 3.6-2.2 7-5.3 8.7l-47.7 26.9c-3.3 1.8-7.4 1.7-10.6-.3l-14.3-8.3c-1-.6-2.1-1-2.8-2 .6-.8 1.7-.9 2.6-1.3 2-.6 3.8-1.6 5.6-2.6.5-.3 1-.2 1.5.1l12.2 7.1c.9.5 1.8-.2 2.5-.6l46.8-26.4c.6-.3.9-.9.9-1.5v-53.8c.1-.7-.3-1.4-1-1.7l-47.6-26.7c-.6-.4-1.3-.4-1.9 0l-47.5 26.8c-.6.3-1.1.9-1 1.7v53.7c-.1.6.3 1.2.9 1.5l12.7 7.2c2.4 1.3 5.3 2 7.9 1.1 2.4-.9 3.9-3.1 3.9-5.7v-53.4c-.1-.8.7-1.4 1.5-1.4h6.1c.8 0 1.4.8 1.3 1.6v53.7c0 4.8-2 10-6.4 12.3-5.4 2.8-12.2 2.2-17.5-.5l-13.7-7.5c-3.2-1.6-5.4-5.1-5.3-8.7v-54.2c0-3.6 2-6.9 5.1-8.6zm13.9 37.5c6.9-.4 14.4-.3 20.6 3.2 4.8 2.6 7.5 8.1 7.6 13.5-.1.7-.9 1.1-1.6 1.1-2 0-4 0-6 0-.9 0-1.3-.8-1.5-1.5-.6-2.6-2-5.1-4.4-6.4-3.7-1.9-8-1.8-12.1-1.7-3 .2-6.1.4-8.6 2.1-1.9 1.3-2.5 4-1.8 6.1.6 1.5 2.4 2 3.9 2.5 8.4 2.2 17.2 2 25.4 4.8 3.4 1.2 6.7 3.5 7.9 7 1.5 4.8.9 10.5-2.5 14.3-2.7 3.1-6.7 4.8-10.7 5.8-5.3 1.2-10.8 1.2-16.2.7-5.1-.6-10.3-1.9-14.3-5.4-3.3-2.9-5-7.4-4.8-11.8 0-.7.8-1.3 1.5-1.2h6c.8-.1 1.4.6 1.4 1.4.4 2.4 1.3 5 3.4 6.4 4.1 2.7 9.3 2.5 14 2.6 3.9-.2 8.3-.2 11.5-2.8 1.7-1.5 2.2-3.9 1.7-6.1-.5-1.8-2.4-2.6-4-3.2-8.3-2.6-17.2-1.7-25.4-4.6-3.3-1.2-6.5-3.4-7.8-6.8-1.8-4.8-1-10.8 2.8-14.5 3.6-3.6 8.9-5 14-5.5z" fill="#8cc84b"/></svg>