<svg enable-background="new 0 0 128 128" viewBox="0 0 128 128" xmlns="http://www.w3.org/2000/svg"><path d="m0 64v64h128v-128h-128zm103.2-5.1c3.2.8 5.7 2.3 8 4.6 1.2 1.3 2.9 3.6 3.1 4.1 0 .2-5.5 3.9-8.9 6-.1.1-.6-.4-1.2-1.3-1.6-2.4-3.4-3.4-6-3.6-3.9-.3-6.4 1.8-6.4 5.2 0 1 .1 1.6.5 2.4.9 1.8 2.4 2.8 7.4 5 9.2 3.9 13.1 6.5 15.5 10.2 2.7 4.1 3.3 10.7 1.5 15.6-2 5.3-7.1 8.9-14.2 10.1-2.2.4-7.4.3-9.8-.1-5.1-.9-10-3.5-13-6.8-1.2-1.3-3.5-4.7-3.3-4.9.1-.1.6-.4 1.2-.8l4.8-2.7 3.7-2.1.8 1.1c1.1 1.6 3.4 3.9 4.9 4.7 4.1 2.2 9.7 1.8 12.5-.6 1.2-1.1 1.7-2.2 1.7-3.8 0-1.5-.2-2.1-1-3.2-1-1.4-3-2.6-8.8-5.1-6.6-2.8-9.4-4.6-12-7.4-1.5-1.6-2.9-4.2-3.5-6.4-.5-1.8-.6-6.3-.2-8.2 1.4-6.4 6.2-10.8 13.1-12.1 2.1-.6 7.3-.4 9.6.1zm-30.1 5.3v5.2h-16.6v47.3h-11.8v-47.2h-16.7v-5.1l.1-5.3c.1-.1 10.2-.1 22.5-.1h22.4z" fill="#007acc"/></svg>