<svg enable-background="new 0 0 128 128" viewBox="0 0 128 128" xmlns="http://www.w3.org/2000/svg"><path d="m110.2 70.9c-4.5 0-8.3 1.1-11.6 2.7-1.2-2.4-2.4-4.4-2.6-6-.2-1.8-.5-2.9-.2-5s1.5-5.2 1.5-5.4-.3-1.3-2.8-1.3c-2.6 0-4.8.5-5 1.2-.4 1.2-.8 2.5-1.1 3.8-.4 2.3-5.1 10.6-7.8 15-.9-1.7-1.6-3.2-1.8-4.4-.2-1.8-.5-2.9-.2-5s1.5-5.2 1.5-5.4-.3-1.3-2.8-1.3c-2.6 0-4.8.5-5 1.2s-.5 2.3-1.1 3.8c-.5 1.5-6.8 15.4-8.4 19-.8 1.8-1.5 3.3-2.1 4.3-.5 1 0 .1-.1.2l-.6 1.1c-.3.6-.7 1.2-.9 1.2-.1 0-.4-1.7 0-4 .9-4.8 3.2-12.3 3.1-12.6 0-.1.4-1.4-1.4-2.1s-2.5.4-2.6.4-.3.4-.3.4 2-8.4-3.9-8.4c-3.7 0-8.8 4-11.3 7.7l-12.7 7-.3-.3c-7.1-7.6-20.3-13-19.8-23.2.2-3.7 1.5-13.5 25.3-25.4 19.5-9.7 35.1-7.1 37.9-1.1 3.9 8.5-8.3 24.2-28.6 26.5-7.7.9-11.8-2.1-12.8-3.2-1.1-1.2-1.2-1.2-1.6-1-.6.3-.2 1.4 0 2 .6 1.6 3.1 4.4 7.3 5.8 3.7 1.2 12.8 1.9 23.8-2.3 12.3-4.8 21.9-18 19.1-29-2.9-11.2-21.5-14.9-39.1-8.7-10.5 3.7-21.8 9.6-30 17.2-9.7 9.1-11.3 17-10.6 20.3 2.2 11.7 18.4 19.4 24.9 25l-.9.5c-3.3 1.6-15.6 8.1-18.7 14.9-3.5 7.7.5 13.3 3.2 14 8.3 2.3 16.8-1.8 21.5-8.7 4.6-6.9 4-15.8 1.9-19.8l-.1-.1 2.5-1.5c1.6-1 3.3-1.9 4.7-2.6-.8 2.2-1.4 4.7-1.7 8.5-.3 4.4 1.4 10.1 3.8 12.3 1 1 2.3 1 3.1 1 2.7 0 4-2.3 5.4-5 1.7-3.3 3.2-7.2 3.2-7.2s-1.9 10.4 3.2 10.4c1.9 0 3.7-2.4 4.6-3.7s0-.1.1-.2c.2-.3.3-.5.3-.5.7-1.3 2.4-4.3 4.9-9.2 3.2-6.3 6.3-14.3 6.3-14.3s.3 1.9 1.2 5.1c.5 1.9 1.7 4 2.7 6l-1.2 1.6c-.6.8-1.3 1.7-2 2.5-2.5 3-5.6 6.5-6 7.5-.5 1.2-.4 2 .5 2.7.7.5 1.9.6 3.1.5 2.3-.1 3.9-.7 4.7-1.1 1.4-.5 2.8-1.2 4-2.1 2.5-1.8 4-4.5 3.9-8-.1-1.9-.7-3.8-1.5-5.6l.7-1c3.9-5.8 7-12.1 7-12.1s.3 1.9 1.2 5.1c.5 1.6 1.4 3.4 2.3 5.1-3.7 3-6 6.5-6.8 8.8-1.5 4.2-.3 6.2 1.8 6.6 1 .2 2.4-.2 3.4-.7 1.3-.4 2.9-1.1 4.3-2.2 2.5-1.8 4.9-4.4 4.8-7.9-.1-1.6-.5-3.2-1.1-4.7 3.1-1.3 7.2-2 12.4-1.4 11.1 1.3 13.3 8.2 12.9 11.1s-2.7 4.5-3.5 5-1 .6-.9 1c.1.5.4.5 1.1.4.9-.1 5.8-2.4 6-7.7.5-6.6-6-14-17.6-14zm-85.5 28.9c-3.7 4-8.8 5.5-11 4.2-2.4-1.4-1.4-7.3 3.1-11.5 2.7-2.6 6.3-5 8.6-6.5l2.3-1.4c.1-.1.2-.1.2-.1l.6-.3c1.7 6 .1 11.4-3.8 15.6zm26.8-18.2c-1.3 3.1-4 11.1-5.6 10.7-1.4-.4-2.2-6.4-.3-12.4 1-3 3.1-6.6 4.4-8 2-2.2 4.2-3 4.8-2.1.6 1.1-2.5 9.8-3.3 11.8zm22.1 10.5c-.5.3-1 .5-1.3.3-.2-.1.2-.5.2-.5s2.8-3 3.9-4.3l2.2-2.8v.3c0 3.7-3.4 6.1-5 7zm17.1-3.9c-.4-.3-.3-1.2 1-4.1.5-1.1 1.7-3.1 3.8-4.9.2.7.4 1.5.4 2.1-.1 4.6-3.3 6.2-5.2 6.9z" fill="#cf649a"/></svg>