<svg enable-background="new 0 0 256 134" viewBox="0 0 256 134" xmlns="http://www.w3.org/2000/svg"><g clip-rule="evenodd" fill-rule="evenodd"><ellipse cx="128" cy="66.6" fill="#8993be" rx="128" ry="66.6"/><g fill="#232531"><path d="m35.9 106.1 14-71h32.4c14 .9 21 7.9 21 20.2 0 21-16.7 33.3-31.6 32.4h-15.6l-3.5 18.4zm23.7-31.6 4.4-26.3h11.4c6.1 0 10.5 2.6 10.5 7.9-.9 14.9-7.9 17.5-15.8 18.4z"/><path d="m100.2 87.7 14-71h16.7l-3.5 18.4h15.8c14 .9 19.3 7.9 17.5 16.7l-6.1 35.9h-17.6l6.1-32.4c.9-4.4.9-7-5.3-7h-13.2l-7.9 39.5h-16.5z"/><path d="m153.4 106.1 14-71h32.4c14 .9 21 7.9 21 20.2 0 21-16.7 33.3-31.6 32.4h-15.8l-3.5 18.4zm23.7-31.6 4.4-26.3h11.4c6.1 0 10.5 2.6 10.5 7.9-.9 14.9-7.9 17.5-15.8 18.4z"/></g></g></svg>