<svg enable-background="new 0 0 128 128" viewBox="0 0 128 128" xmlns="http://www.w3.org/2000/svg"><path d="m97.9 67.9c.2 18.8 16.5 25.1 16.7 25.1-.1.4-2.6 8.9-8.6 17.7-5.2 7.6-10.6 15.1-19 15.3-8.3.2-11-4.9-20.5-4.9s-12.5 4.8-20.4 5.1c-8.2.3-14.4-8.2-19.6-15.7-10.7-15.5-18.8-43.7-7.9-62.7 5.4-9.4 15.2-15.4 25.7-15.6 8-.2 15.6 5.4 20.5 5.4s14.1-6.7 23.8-5.7c4.1.2 15.4 1.6 22.7 12.3-.6.4-13.5 8-13.4 23.7m-15.6-46.2c4.3-5.3 7.3-12.6 6.5-19.8-6.3.2-13.9 4.1-18.4 9.4-4 4.6-7.5 12.1-6.6 19.2 7 .6 14.1-3.5 18.5-8.8"/></svg>