<svg enable-background="new 0 0 128 128" viewBox="0 0 128 128" xmlns="http://www.w3.org/2000/svg"><path d="m79.5 101.9c-.7 0-1.3-.4-1.7-1l-14.9-24.8-27.9 7.6c-.9.2-1.8-.2-2.2-1l-32.6-61.2c-.5-1-.2-2.2.8-2.7.2-.1.4-.2.7-.2l27.7-3.7c.8-.1 1.6.3 2 .9l33.4 55.7 38.7-10.5-12.9-18.3c-.6-.9-.4-2.1.4-2.7.2-.1.4-.2.7-.3l18.2-4.3c.7-.2 1.5.1 2 .7l15.7 19.6c.7.8.5 2.1-.3 2.8-.2.2-.5.3-.7.4l-16.6 4.4 14.4 20.4c.6.9.4 2.1-.5 2.7-.2.1-.3.2-.5.3l-43.4 15.2c-.1 0-.3 0-.5 0zm-12.6-26.9 13.5 22.5 39.4-13.8-13.8-19.3zm-61.9-52.9 30.5 57.4 25.3-6.9-32.2-53.7zm90.5 20.7 12.1 17.1 15.1-4.1-13.1-16.3z" fill="#ef533f"/></svg>