<svg enable-background="new 0 0 64 64" viewBox="0 0 64 64" xmlns="http://www.w3.org/2000/svg"><path d="m40.7 20.5h2l5.6-5.6.3-2.4c-4.4-3.8-10.2-6.2-16.6-6.2-11.5 0-21.3 7.9-24.2 18.5.6-.4 1.9-.1 1.9-.1l11.1-1.8s.6-.9.9-.9c2.6-2.9 6.4-4.5 10.3-4.5 3.3-.1 6.3 1 8.7 3z" fill="#ea4335"/><path d="m56.2 24.8c-1.3-4.8-4-9-7.6-12.2l-7.9 7.9c3.2 2.5 5.2 6.5 5.2 10.8v1.4c3.8 0 7 3.1 7 7 0 3.8-3.1 7-7 7h-13.9l-1.4 1.3v8.3l1.4 1.4h13.9c10 0 18.1-8.1 18.1-18.1 0-6.1-3.1-11.6-7.8-14.8z" fill="#4285f4"/><path d="m18.1 57.7h13.9v-11.1h-13.9c-1 0-2-.2-2.9-.6l-2 .6-5.6 5.6-.4 1.8c3.1 2.4 6.9 3.7 10.9 3.7z" fill="#34a853"/><path d="m18.1 21.6c-10 0-18.1 8.1-18.1 18.1 0 5.9 2.8 11.1 7.2 14.4l8.1-8.1c-2.5-1.1-4.1-3.6-4.1-6.3 0-3.8 3.1-7 7-7 2.8 0 5.2 1.7 6.3 4.1l8.1-8.1c-3.4-4.3-8.6-7.1-14.5-7.1z" fill="#fbbc05"/></svg>